<?xml version="1.0" encoding="UTF-8"?>
<svg width="932px" height="800px" viewBox="0 0 932 800" version="1.1" xmlns="http://www.w3.org/2000/svg" xmlns:xlink="http://www.w3.org/1999/xlink">
    <!-- Generator: Sketch 48.2 (47327) - http://www.bohemiancoding.com/sketch -->
    <title>Artboard</title>
    <desc>Created with Sketch.</desc>
    <defs>
        <polygon id="path-1" points="0.8792 0.948 40.2802 0.948 40.2802 14.1758 0.8792 14.1758"></polygon>
    </defs>
    <g id="Page-1" stroke="none" stroke-width="1" fill="none" fill-rule="evenodd">
        <g id="Artboard">
            <g id="Group" transform="translate(35.000000, 35.000000)">
                <g id="Group-10" transform="translate(0.000000, 47.000000)">
                    <path d="M102,200.0518 L762,200.0518 C817.229,200.0518 862,155.2808 862,100.0518 C862,44.8228 817.229,0.0518 762,0.0518 L102,0.0518 L102,3.0518 L762,3.0518 C815.571,3.0518 859,46.4808 859,100.0518 C859,153.6238 815.571,197.0518 762,197.0518 L102,197.0518 L102,200.0518 Z" id="Fill-26" fill="#00ADD9"></path>
                    <path d="M102,594.0518 L762,594.0518 C817.229,594.0518 862,549.2808 862,494.0518 C862,438.8228 817.229,394.0518 762,394.0518 L102,394.0518 L102,397.0518 L762,397.0518 C815.571,397.0518 859,440.4798 859,494.0518 C859,547.6238 815.571,591.0518 762,591.0518 L102,591.0518 L102,594.0518 Z" id="Fill-28" fill="#00ADD9"></path>
                    <path d="M638,197.0518 L100,197.0518 C44.771,197.0518 0,241.8228 0,297.0518 C0,352.2808 44.771,397.0518 100,397.0518 L638,397.0518 L638,394.0518 L100,394.0518 C46.429,394.0518 3,350.6238 3,297.0518 C3,243.4798 46.429,200.0518 100,200.0518 L638,200.0518 L638,197.0518 Z" id="Fill-30" fill="#00ADD9"></path>
                    <path d="M257,197.0518 L257,200.0518 L102,200.0518 L100,200.0518 C46.429,200.0518 3,243.4808 3,297.0518 C3,350.6238 46.429,394.0518 100,394.0518 L102,394.0518 L638,394.0518 L762,394.0518 C817.229,394.0518 862,438.8228 862,494.0518 C862,549.2808 817.229,594.0518 762,594.0518 L102,594.0518 L102,591.0518 L762,591.0518 C815.57,591.0518 859,547.6228 859,494.0518 C859,440.4808 815.57,397.0518 762,397.0518 L638,397.0518 L102,397.0518 L100,397.0518 C44.771,397.0518 0,352.2808 0,297.0518 C0,241.8228 44.771,197.0518 100,197.0518 L102,197.0518 L257,197.0518 Z" id="Fill-32" fill="#CCCCCC"></path>
                </g>
                <path d="M270.104,244.557277 L277.104,251.224277 L275.725,252.672277 L268.725,246.005277 L270.104,244.557277 Z M277.138,238.638277 L270.138,245.972277 L268.691,244.591277 L275.691,237.257277 L277.138,238.638277 Z M277.104,251.224277 C277.504,251.604277 277.52,252.238277 277.139,252.638277 C276.758,253.037277 276.125,253.053277 275.725,252.672277 L277.104,251.224277 Z M269.415,245.281277 L268.725,246.005277 L268,245.315277 L268.691,244.591277 L269.415,245.281277 Z M275.691,237.257277 C276.073,236.858277 276.706,236.843277 277.105,237.224277 C277.504,237.606277 277.519,238.239277 277.138,238.638277 L275.691,237.257277 Z" id="Fill-3" fill="#00ADD9"></path>
                <path d="M594.104,47.5572769 L601.104,54.2242769 L599.725,55.6722769 L592.725,49.0052769 L594.104,47.5572769 Z M601.138,41.6382769 L594.138,48.9722769 L592.691,47.5912769 L599.691,40.2572769 L601.138,41.6382769 Z M601.104,54.2242769 C601.504,54.6042769 601.52,55.2382769 601.139,55.6382769 C600.758,56.0372769 600.125,56.0532769 599.725,55.6722769 L601.104,54.2242769 Z M593.415,48.2812769 L592.725,49.0052769 L592,48.3152769 L592.691,47.5912769 L593.415,48.2812769 Z M599.691,40.2572769 C600.073,39.8582769 600.706,39.8432769 601.105,40.2242769 C601.504,40.6062769 601.519,41.2392769 601.138,41.6382769 L599.691,40.2572769 Z" id="Fill-3-Copy" fill="#00ADD9" transform="translate(596.707344, 47.948039) scale(-1, 1) translate(-596.707344, -47.948039) "></path>
                <path d="M258.6895,638.6092 L265.6895,645.2762 L264.3105,646.7242 L257.3105,640.0572 L258.6895,638.6092 Z M265.7235,632.6902 L258.7235,640.0242 L257.2765,638.6422 L264.2765,631.3092 L265.7235,632.6902 Z M265.6895,645.2762 C266.0895,645.6572 266.1055,646.2902 265.7245,646.6892 C265.3435,647.0892 264.7105,647.1052 264.3105,646.7242 L265.6895,645.2762 Z M258.0005,639.3342 L257.3105,640.0572 L256.5855,639.3672 L257.2765,638.6422 L258.0005,639.3342 Z M264.2765,631.3092 C264.6585,630.9102 265.2915,630.8952 265.6905,631.2762 C266.0895,631.6582 266.1045,632.2912 265.7235,632.6902 L264.2765,631.3092 Z" id="Fill-5" fill="#CCCCCC"></path>
                <path d="M599.3877,442.0184 L591.3877,448.2084 L592.6127,449.7904 L600.6127,443.6004 L599.3877,442.0184 Z M591.3517,436.7614 L599.3517,443.5714 L600.6487,442.0474 L592.6487,435.2384 L591.3517,436.7614 Z M591.3877,448.2084 C590.9507,448.5464 590.8707,449.1754 591.2087,449.6124 C591.5467,450.0484 592.1747,450.1284 592.6127,449.7904 L591.3877,448.2084 Z M599.9997,442.8094 L600.6127,443.6004 L601.5857,442.8464 L600.6487,442.0474 L599.9997,442.8094 Z M592.6487,435.2384 C592.2277,434.8804 591.5967,434.9314 591.2387,435.3514 C590.8807,435.7724 590.9317,436.4034 591.3517,436.7614 L592.6487,435.2384 Z" id="Fill-7" fill="#CCCCCC"></path>
                <path d="M642.0332,592.1522 C641.3012,592.1522 640.7262,592.3282 640.3102,592.6792 C639.8942,593.0312 639.6862,593.5002 639.6862,594.0862 C639.6862,594.6252 639.8592,595.0882 640.2052,595.4742 C640.5512,595.8612 641.1892,596.2482 642.1212,596.6342 C642.9592,596.2832 643.5512,595.9052 643.8962,595.5012 C644.2482,595.0962 644.4242,594.6252 644.4242,594.0862 C644.4242,593.4942 644.2102,593.0252 643.7822,592.6792 C643.3602,592.3282 642.7772,592.1522 642.0332,592.1522 Z M639.2732,600.7562 C639.2732,601.4602 639.5162,602.0072 640.0032,602.4002 C640.4952,602.7932 641.1832,602.9892 642.0682,602.9892 C642.9412,602.9892 643.6212,602.7842 644.1072,602.3742 C644.5942,601.9642 644.8372,601.4012 644.8372,600.6862 C644.8372,600.1182 644.6082,599.6142 644.1512,599.1742 C643.6942,598.7292 642.8972,598.2982 641.7612,597.8822 C640.8872,598.2572 640.2552,598.6732 639.8622,599.1312 C639.4702,599.5822 639.2732,600.1242 639.2732,600.7562 Z M642.0512,590.9652 C643.2222,590.9652 644.1512,591.2382 644.8372,591.7832 C645.5222,592.3282 645.8652,593.0812 645.8652,594.0422 C645.8652,594.6742 645.6692,595.2522 645.2762,595.7732 C644.8842,596.2952 644.2572,596.7692 643.3952,597.1972 C644.4382,597.6952 645.1792,598.2192 645.6192,598.7702 C646.0582,599.3152 646.2782,599.9482 646.2782,600.6692 C646.2782,601.7352 645.9062,602.5882 645.1622,603.2262 C644.4182,603.8592 643.3982,604.1752 642.1032,604.1752 C640.7322,604.1752 639.6782,603.8772 638.9392,603.2792 C638.2012,602.6752 637.8322,601.8232 637.8322,600.7212 C637.8322,599.2512 638.7282,598.1052 640.5212,597.2852 C639.7132,596.8282 639.1332,596.3362 638.7812,595.8082 C638.4292,595.2752 638.2542,594.6802 638.2542,594.0242 C638.2542,593.0922 638.5962,592.3512 639.2822,591.8002 C639.9732,591.2442 640.8962,590.9652 642.0512,590.9652 Z M632.9012,604.0002 L631.4772,604.0002 L631.4772,594.8412 C631.4772,594.0802 631.5012,593.3592 631.5482,592.6792 C631.4252,592.8022 631.2872,592.9312 631.1352,593.0662 C630.9822,593.2012 630.2852,593.7722 629.0432,594.7802 L628.2692,593.7782 L631.6712,591.1502 L632.9012,591.1502 L632.9012,604.0002 Z M618.6892,597.5572 C618.6892,599.4262 618.9092,600.7892 619.3482,601.6442 C619.7882,602.4942 620.4882,602.9192 621.4492,602.9192 C622.4222,602.9192 623.1252,602.4882 623.5582,601.6272 C623.9982,600.7592 624.2182,599.4032 624.2182,597.5572 C624.2182,595.7122 623.9982,594.3612 623.5582,593.5062 C623.1252,592.6442 622.4222,592.2142 621.4492,592.2142 C620.4882,592.2142 619.7882,592.6382 619.3482,593.4882 C618.9092,594.3322 618.6892,595.6882 618.6892,597.5572 Z M625.7122,597.5572 C625.7122,599.7782 625.3602,601.4362 624.6572,602.5322 C623.9602,603.6282 622.8902,604.1752 621.4492,604.1752 C620.0662,604.1752 619.0142,603.6162 618.2942,602.4972 C617.5732,601.3722 617.2132,599.7252 617.2132,597.5572 C617.2132,595.3192 617.5612,593.6582 618.2592,592.5742 C618.9562,591.4902 620.0192,590.9482 621.4492,590.9482 C622.8442,590.9482 623.9012,591.5132 624.6222,592.6442 C625.3482,593.7752 625.7122,595.4132 625.7122,597.5572 Z M615.3412,604.0002 L606.8942,604.0002 L606.8942,602.7432 L610.2782,599.3412 C611.3092,598.2982 611.9892,597.5542 612.3172,597.1092 C612.6452,596.6642 612.8912,596.2302 613.0552,595.8082 C613.2202,595.3862 613.3022,594.9322 613.3022,594.4462 C613.3022,593.7602 613.0942,593.2182 612.6782,592.8202 C612.2622,592.4162 611.6842,592.2142 610.9462,592.2142 C610.4132,592.2142 609.9062,592.3012 609.4262,592.4772 C608.9512,592.6532 608.4212,592.9722 607.8352,593.4352 L607.0612,592.4422 C608.2452,591.4582 609.5342,590.9652 610.9292,590.9652 C612.1362,590.9652 613.0822,591.2762 613.7672,591.8972 C614.4532,592.5122 614.7962,593.3412 614.7962,594.3842 C614.7962,595.1992 614.5672,596.0052 614.1102,596.8012 C613.6532,597.5982 612.7982,598.6062 611.5442,599.8252 L608.7312,602.5762 L608.7312,602.6462 L615.3412,602.6462 L615.3412,604.0002 Z M597.6662,599.7192 L597.6662,595.4482 C597.6662,594.6102 597.6952,593.6642 597.7542,592.6092 L597.6832,592.6092 C597.4022,593.1722 597.1382,593.6372 596.8922,594.0062 L592.8762,599.7192 L597.6662,599.7192 Z M600.9702,601.0472 L599.0632,601.0472 L599.0632,604.0002 L597.6662,604.0002 L597.6662,601.0472 L591.4172,601.0472 L591.4172,599.7722 L597.5162,591.0802 L599.0632,591.0802 L599.0632,599.7192 L600.9702,599.7192 L600.9702,601.0472 Z M584.9662,604.1752 C583.7232,604.1752 582.7542,603.7392 582.0562,602.8662 C581.3592,601.9932 581.0112,600.7742 581.0112,599.2102 C581.0112,597.6332 581.3622,596.4032 582.0652,595.5182 C582.7682,594.6332 583.7472,594.1912 585.0012,594.1912 C586.3192,594.1912 587.3332,594.6892 588.0422,595.6852 L588.1212,595.6852 L588.3322,594.3672 L589.4832,594.3672 L589.4832,608.3242 L588.0242,608.3242 L588.0242,604.2022 C588.0242,603.6162 588.0562,603.1182 588.1212,602.7082 L588.0072,602.7082 C587.3332,603.6862 586.3192,604.1752 584.9662,604.1752 Z M585.1852,602.9542 C586.1582,602.9542 586.8672,602.6932 587.3122,602.1722 C587.7582,601.6502 587.9952,600.7712 588.0242,599.5352 L588.0242,599.2102 C588.0242,597.8622 587.7962,596.8922 587.3392,596.3002 C586.8822,595.7092 586.1582,595.4132 585.1682,595.4132 C584.3122,595.4132 583.6562,595.7472 583.1992,596.4152 C582.7482,597.0772 582.5222,598.0142 582.5222,599.2272 C582.5222,600.4402 582.7452,601.3662 583.1902,602.0052 C583.6412,602.6372 584.3062,602.9542 585.1852,602.9542 Z" id="Fill-9" fill="#333333"></path>
                <path d="M257.9033,592.2137 C257.0653,592.2137 256.4183,592.4837 255.9613,593.0227 C255.5043,593.5617 255.2753,594.3117 255.2753,595.2727 C255.2753,596.1157 255.4863,596.7807 255.9083,597.2677 C256.3303,597.7477 256.9713,597.9877 257.8333,597.9877 C258.3663,597.9877 258.8553,597.8797 259.3003,597.6627 C259.7523,597.4457 260.1063,597.1507 260.3643,596.7757 C260.6223,596.4007 260.7513,596.0077 260.7513,595.5977 C260.7513,594.9827 260.6313,594.4137 260.3903,593.8927 C260.1503,593.3707 259.8133,592.9607 259.3803,592.6617 C258.9523,592.3627 258.4603,592.2137 257.9033,592.2137 Z M262.2273,596.6347 C262.2273,601.6617 260.2823,604.1757 256.3913,604.1757 C255.7123,604.1757 255.1733,604.1167 254.7743,603.9997 L254.7743,602.7427 C255.2433,602.8957 255.7763,602.9717 256.3743,602.9717 C257.7803,602.9717 258.8403,602.5377 259.5553,601.6707 C260.2763,600.7977 260.6693,599.4617 260.7333,597.6627 L260.6283,597.6627 C260.3053,598.1497 259.8783,598.5217 259.3443,598.7787 C258.8113,599.0307 258.2113,599.1567 257.5433,599.1567 C256.4063,599.1567 255.5043,598.8177 254.8363,598.1377 C254.1683,597.4577 253.8343,596.5087 253.8343,595.2897 C253.8343,593.9537 254.2063,592.8997 254.9503,592.1257 C255.7003,591.3527 256.6843,590.9657 257.9033,590.9657 C258.7763,590.9657 259.5383,591.1917 260.1883,591.6427 C260.8443,592.0877 261.3483,592.7407 261.7003,593.6027 C262.0513,594.4577 262.2273,595.4687 262.2273,596.6347 Z M248.8853,603.9997 L247.4623,603.9997 L247.4623,594.8417 C247.4623,594.0797 247.4853,593.3597 247.5323,592.6797 C247.4093,592.8027 247.2713,592.9317 247.1193,593.0667 C246.9663,593.2007 246.2693,593.7727 245.0273,594.7797 L244.2543,593.7777 L247.6553,591.1507 L248.8853,591.1507 L248.8853,603.9997 Z M234.6743,597.5577 C234.6743,599.4267 234.8933,600.7887 235.3333,601.6447 C235.7723,602.4937 236.4723,602.9187 237.4333,602.9187 C238.4063,602.9187 239.1093,602.4877 239.5433,601.6267 C239.9823,600.7597 240.2023,599.4027 240.2023,597.5577 C240.2023,595.7117 239.9823,594.3607 239.5433,593.5057 C239.1093,592.6447 238.4063,592.2137 237.4333,592.2137 C236.4723,592.2137 235.7723,592.6387 235.3333,593.4877 C234.8933,594.3317 234.6743,595.6887 234.6743,597.5577 Z M241.6963,597.5577 C241.6963,599.7777 241.3443,601.4367 240.6413,602.5317 C239.9443,603.6277 238.8753,604.1757 237.4333,604.1757 C236.0503,604.1757 234.9993,603.6157 234.2783,602.4967 C233.5573,601.3717 233.1973,599.7257 233.1973,597.5577 C233.1973,595.3187 233.5463,593.6577 234.2433,592.5737 C234.9403,591.4897 236.0043,590.9477 237.4333,590.9477 C238.8283,590.9477 239.8853,591.5137 240.6063,592.6447 C241.3333,593.7757 241.6963,595.4127 241.6963,597.5577 Z M231.3253,603.9997 L222.8793,603.9997 L222.8793,602.7427 L226.2623,599.3417 C227.2943,598.2987 227.9733,597.5547 228.3013,597.1097 C228.6303,596.6637 228.8763,596.2307 229.0403,595.8087 C229.2043,595.3867 229.2863,594.9327 229.2863,594.4457 C229.2863,593.7607 229.0783,593.2187 228.6623,592.8197 C228.2463,592.4157 227.6693,592.2137 226.9303,592.2137 C226.3973,592.2137 225.8903,592.3017 225.4103,592.4777 C224.9353,592.6527 224.4053,592.9727 223.8193,593.4357 L223.0463,592.4427 C224.2293,591.4577 225.5183,590.9657 226.9133,590.9657 C228.1203,590.9657 229.0663,591.2767 229.7523,591.8977 C230.4373,592.5127 230.7803,593.3417 230.7803,594.3847 C230.7803,595.1987 230.5513,596.0047 230.0943,596.8017 C229.6373,597.5987 228.7823,598.6067 227.5283,599.8247 L224.7153,602.5757 L224.7153,602.6467 L231.3253,602.6467 L231.3253,603.9997 Z" id="Fill-11" fill="#333333"></path>
                <path d="M642.0332,395.1522 C641.3012,395.1522 640.7262,395.3282 640.3102,395.6792 C639.8942,396.0312 639.6862,396.5002 639.6862,397.0862 C639.6862,397.6252 639.8592,398.0882 640.2052,398.4742 C640.5512,398.8612 641.1892,399.2482 642.1212,399.6342 C642.9592,399.2832 643.5512,398.9052 643.8962,398.5012 C644.2482,398.0962 644.4242,397.6252 644.4242,397.0862 C644.4242,396.4942 644.2102,396.0252 643.7822,395.6792 C643.3602,395.3282 642.7772,395.1522 642.0332,395.1522 Z M639.2732,403.7562 C639.2732,404.4602 639.5162,405.0072 640.0032,405.4002 C640.4952,405.7932 641.1832,405.9892 642.0682,405.9892 C642.9412,405.9892 643.6212,405.7842 644.1072,405.3742 C644.5942,404.9642 644.8372,404.4012 644.8372,403.6862 C644.8372,403.1182 644.6082,402.6142 644.1512,402.1742 C643.6942,401.7292 642.8972,401.2982 641.7612,400.8822 C640.8872,401.2572 640.2552,401.6732 639.8622,402.1312 C639.4702,402.5822 639.2732,403.1242 639.2732,403.7562 Z M642.0512,393.9652 C643.2222,393.9652 644.1512,394.2382 644.8372,394.7832 C645.5222,395.3282 645.8652,396.0812 645.8652,397.0422 C645.8652,397.6742 645.6692,398.2522 645.2762,398.7732 C644.8842,399.2952 644.2572,399.7692 643.3952,400.1972 C644.4382,400.6952 645.1792,401.2192 645.6192,401.7702 C646.0582,402.3152 646.2782,402.9482 646.2782,403.6692 C646.2782,404.7352 645.9062,405.5882 645.1622,406.2262 C644.4182,406.8592 643.3982,407.1752 642.1032,407.1752 C640.7322,407.1752 639.6782,406.8772 638.9392,406.2792 C638.2012,405.6752 637.8322,404.8232 637.8322,403.7212 C637.8322,402.2512 638.7282,401.1052 640.5212,400.2852 C639.7132,399.8282 639.1332,399.3362 638.7812,398.8082 C638.4292,398.2752 638.2542,397.6802 638.2542,397.0242 C638.2542,396.0922 638.5962,395.3512 639.2822,394.8002 C639.9732,394.2442 640.8962,393.9652 642.0512,393.9652 Z M632.9012,407.0002 L631.4772,407.0002 L631.4772,397.8412 C631.4772,397.0802 631.5012,396.3592 631.5482,395.6792 C631.4252,395.8022 631.2872,395.9312 631.1352,396.0662 C630.9822,396.2012 630.2852,396.7722 629.0432,397.7802 L628.2692,396.7782 L631.6712,394.1502 L632.9012,394.1502 L632.9012,407.0002 Z M618.6892,400.5572 C618.6892,402.4262 618.9092,403.7892 619.3482,404.6442 C619.7882,405.4942 620.4882,405.9192 621.4492,405.9192 C622.4222,405.9192 623.1252,405.4882 623.5582,404.6272 C623.9982,403.7592 624.2182,402.4032 624.2182,400.5572 C624.2182,398.7122 623.9982,397.3612 623.5582,396.5062 C623.1252,395.6442 622.4222,395.2142 621.4492,395.2142 C620.4882,395.2142 619.7882,395.6382 619.3482,396.4882 C618.9092,397.3322 618.6892,398.6882 618.6892,400.5572 Z M625.7122,400.5572 C625.7122,402.7782 625.3602,404.4362 624.6572,405.5322 C623.9602,406.6282 622.8902,407.1752 621.4492,407.1752 C620.0662,407.1752 619.0142,406.6162 618.2942,405.4972 C617.5732,404.3722 617.2132,402.7252 617.2132,400.5572 C617.2132,398.3192 617.5612,396.6582 618.2592,395.5742 C618.9562,394.4902 620.0192,393.9482 621.4492,393.9482 C622.8442,393.9482 623.9012,394.5132 624.6222,395.6442 C625.3482,396.7752 625.7122,398.4132 625.7122,400.5572 Z M615.3412,407.0002 L606.8942,407.0002 L606.8942,405.7432 L610.2782,402.3412 C611.3092,401.2982 611.9892,400.5542 612.3172,400.1092 C612.6452,399.6642 612.8912,399.2302 613.0552,398.8082 C613.2202,398.3862 613.3022,397.9322 613.3022,397.4462 C613.3022,396.7602 613.0942,396.2182 612.6782,395.8202 C612.2622,395.4162 611.6842,395.2142 610.9462,395.2142 C610.4132,395.2142 609.9062,395.3012 609.4262,395.4772 C608.9512,395.6532 608.4212,395.9722 607.8352,396.4352 L607.0612,395.4422 C608.2452,394.4582 609.5342,393.9652 610.9292,393.9652 C612.1362,393.9652 613.0822,394.2762 613.7672,394.8972 C614.4532,395.5122 614.7962,396.3412 614.7962,397.3842 C614.7962,398.1992 614.5672,399.0052 614.1102,399.8012 C613.6532,400.5982 612.7982,401.6062 611.5442,402.8252 L608.7312,405.5762 L608.7312,405.6462 L615.3412,405.6462 L615.3412,407.0002 Z M599.8812,397.1732 C599.8812,397.9942 599.6492,398.6652 599.1862,399.1862 C598.7292,399.7082 598.0792,400.0562 597.2352,400.2322 L597.2352,400.3022 C598.2662,400.4312 599.0312,400.7592 599.5292,401.2872 C600.0272,401.8142 600.2762,402.5062 600.2762,403.3612 C600.2762,404.5862 599.8512,405.5292 599.0022,406.1912 C598.1522,406.8472 596.9452,407.1752 595.3812,407.1752 C594.7012,407.1752 594.0772,407.1232 593.5092,407.0172 C592.9462,406.9182 592.3982,406.7392 591.8652,406.4812 L591.8652,405.0922 C592.4222,405.3682 593.0132,405.5792 593.6402,405.7252 C594.2732,405.8662 594.8712,405.9362 595.4332,405.9362 C597.6542,405.9362 598.7642,405.0662 598.7642,403.3262 C598.7642,401.7672 597.5402,400.9882 595.0912,400.9882 L593.8252,400.9882 L593.8252,399.7312 L595.1082,399.7312 C596.1102,399.7312 596.9042,399.5112 597.4902,399.0722 C598.0762,398.6272 598.3692,398.0112 598.3692,397.2262 C598.3692,396.5992 598.1522,396.1072 597.7192,395.7502 C597.2912,395.3922 596.7082,395.2142 595.9702,395.2142 C595.4072,395.2142 594.8772,395.2902 594.3792,395.4422 C593.8812,395.5942 593.3122,395.8762 592.6742,396.2862 L591.9352,395.3012 C592.4632,394.8852 593.0692,394.5602 593.7552,394.3262 C594.4462,394.0862 595.1732,393.9652 595.9342,393.9652 C597.1822,393.9652 598.1522,394.2532 598.8442,394.8272 C599.5352,395.3952 599.8812,396.1772 599.8812,397.1732 Z M584.9662,407.1752 C583.7232,407.1752 582.7542,406.7392 582.0562,405.8662 C581.3592,404.9932 581.0112,403.7742 581.0112,402.2102 C581.0112,400.6332 581.3622,399.4032 582.0652,398.5182 C582.7682,397.6332 583.7472,397.1912 585.0012,397.1912 C586.3192,397.1912 587.3332,397.6892 588.0422,398.6852 L588.1212,398.6852 L588.3322,397.3672 L589.4832,397.3672 L589.4832,411.3242 L588.0242,411.3242 L588.0242,407.2022 C588.0242,406.6162 588.0562,406.1182 588.1212,405.7082 L588.0072,405.7082 C587.3332,406.6862 586.3192,407.1752 584.9662,407.1752 Z M585.1852,405.9542 C586.1582,405.9542 586.8672,405.6932 587.3122,405.1722 C587.7582,404.6502 587.9952,403.7712 588.0242,402.5352 L588.0242,402.2102 C588.0242,400.8622 587.7962,399.8922 587.3392,399.3002 C586.8822,398.7092 586.1582,398.4132 585.1682,398.4132 C584.3122,398.4132 583.6562,398.7472 583.1992,399.4152 C582.7482,400.0772 582.5222,401.0142 582.5222,402.2272 C582.5222,403.4402 582.7452,404.3662 583.1902,405.0052 C583.6412,405.6372 584.3062,405.9542 585.1852,405.9542 Z" id="Fill-13" fill="#333333"></path>
                <path d="M271.022,395.152 C270.29,395.152 269.715,395.328 269.299,395.679 C268.883,396.031 268.675,396.5 268.675,397.086 C268.675,397.625 268.848,398.088 269.194,398.474 C269.54,398.861 270.178,399.248 271.11,399.634 C271.948,399.283 272.54,398.905 272.885,398.501 C273.237,398.096 273.413,397.625 273.413,397.086 C273.413,396.494 273.199,396.025 272.771,395.679 C272.349,395.328 271.766,395.152 271.022,395.152 Z M268.262,403.756 C268.262,404.46 268.505,405.007 268.992,405.4 C269.484,405.793 270.172,405.989 271.057,405.989 C271.93,405.989 272.61,405.784 273.096,405.374 C273.583,404.964 273.826,404.401 273.826,403.686 C273.826,403.118 273.597,402.614 273.14,402.174 C272.683,401.729 271.886,401.298 270.75,400.882 C269.876,401.257 269.244,401.673 268.851,402.131 C268.459,402.582 268.262,403.124 268.262,403.756 Z M271.04,393.965 C272.211,393.965 273.14,394.238 273.826,394.783 C274.511,395.328 274.854,396.081 274.854,397.042 C274.854,397.674 274.658,398.252 274.265,398.773 C273.873,399.295 273.246,399.769 272.384,400.197 C273.427,400.695 274.168,401.219 274.608,401.77 C275.047,402.315 275.267,402.948 275.267,403.669 C275.267,404.735 274.895,405.588 274.151,406.226 C273.407,406.859 272.387,407.175 271.092,407.175 C269.721,407.175 268.667,406.877 267.928,406.279 C267.19,405.675 266.821,404.823 266.821,403.721 C266.821,402.251 267.717,401.105 269.51,400.285 C268.702,399.828 268.122,399.336 267.77,398.808 C267.418,398.275 267.243,397.68 267.243,397.024 C267.243,396.092 267.585,395.351 268.271,394.8 C268.962,394.244 269.885,393.965 271.04,393.965 Z M261.89,407 L260.466,407 L260.466,397.841 C260.466,397.08 260.49,396.359 260.537,395.679 C260.414,395.802 260.276,395.931 260.124,396.066 C259.971,396.201 259.274,396.772 258.032,397.78 L257.258,396.778 L260.66,394.15 L261.89,394.15 L261.89,407 Z M247.678,400.557 C247.678,402.426 247.898,403.789 248.337,404.644 C248.777,405.494 249.477,405.919 250.438,405.919 C251.411,405.919 252.114,405.488 252.547,404.627 C252.987,403.759 253.207,402.403 253.207,400.557 C253.207,398.712 252.987,397.361 252.547,396.506 C252.114,395.644 251.411,395.214 250.438,395.214 C249.477,395.214 248.777,395.638 248.337,396.488 C247.898,397.332 247.678,398.688 247.678,400.557 Z M254.701,400.557 C254.701,402.778 254.349,404.436 253.646,405.532 C252.949,406.628 251.879,407.175 250.438,407.175 C249.055,407.175 248.003,406.616 247.283,405.497 C246.562,404.372 246.202,402.725 246.202,400.557 C246.202,398.319 246.55,396.658 247.248,395.574 C247.945,394.49 249.008,393.948 250.438,393.948 C251.833,393.948 252.89,394.513 253.611,395.644 C254.337,396.775 254.701,398.413 254.701,400.557 Z M244.33,407 L235.883,407 L235.883,405.743 L239.267,402.341 C240.298,401.298 240.978,400.554 241.306,400.109 C241.634,399.664 241.88,399.23 242.044,398.808 C242.209,398.386 242.291,397.932 242.291,397.446 C242.291,396.76 242.083,396.218 241.667,395.82 C241.251,395.416 240.673,395.214 239.935,395.214 C239.402,395.214 238.895,395.301 238.415,395.477 C237.94,395.653 237.41,395.972 236.824,396.435 L236.05,395.442 C237.234,394.458 238.523,393.965 239.918,393.965 C241.125,393.965 242.071,394.276 242.756,394.897 C243.442,395.512 243.785,396.341 243.785,397.384 C243.785,398.199 243.556,399.005 243.099,399.801 C242.642,400.598 241.787,401.606 240.533,402.825 L237.72,405.576 L237.72,405.646 L244.33,405.646 L244.33,407 Z M229.353,407 L220.907,407 L220.907,405.743 L224.291,402.341 C225.322,401.298 226.001,400.554 226.33,400.109 C226.658,399.664 226.904,399.23 227.068,398.808 C227.232,398.386 227.314,397.932 227.314,397.446 C227.314,396.76 227.106,396.218 226.69,395.82 C226.274,395.416 225.697,395.214 224.959,395.214 C224.425,395.214 223.918,395.301 223.438,395.477 C222.963,395.653 222.433,395.972 221.847,396.435 L221.074,395.442 C222.257,394.458 223.546,393.965 224.941,393.965 C226.148,393.965 227.094,394.276 227.78,394.897 C228.465,395.512 228.808,396.341 228.808,397.384 C228.808,398.199 228.58,399.005 228.123,399.801 C227.666,400.598 226.81,401.606 225.556,402.825 L222.744,405.576 L222.744,405.646 L229.353,405.646 L229.353,407 Z M213.955,407.175 C212.712,407.175 211.743,406.739 211.045,405.866 C210.348,404.993 210,403.774 210,402.21 C210,400.633 210.351,399.403 211.054,398.518 C211.757,397.633 212.736,397.191 213.99,397.191 C215.308,397.191 216.322,397.689 217.031,398.685 L217.11,398.685 L217.321,397.367 L218.472,397.367 L218.472,411.324 L217.013,411.324 L217.013,407.202 C217.013,406.616 217.045,406.118 217.11,405.708 L216.996,405.708 C216.322,406.686 215.308,407.175 213.955,407.175 Z M214.174,405.954 C215.147,405.954 215.856,405.693 216.301,405.172 C216.747,404.65 216.984,403.771 217.013,402.535 L217.013,402.21 C217.013,400.862 216.785,399.892 216.328,399.3 C215.871,398.709 215.147,398.413 214.157,398.413 C213.301,398.413 212.645,398.747 212.188,399.415 C211.737,400.077 211.511,401.014 211.511,402.227 C211.511,403.44 211.734,404.366 212.179,405.005 C212.63,405.637 213.295,405.954 214.174,405.954 Z" id="Fill-15" fill="#333333"></path>
                <path d="M271.0332,198.1522 C270.3012,198.1522 269.7262,198.3282 269.3102,198.6792 C268.8942,199.0312 268.6862,199.5002 268.6862,200.0862 C268.6862,200.6252 268.8592,201.0882 269.2052,201.4742 C269.5512,201.8612 270.1892,202.2482 271.1212,202.6342 C271.9592,202.2832 272.5512,201.9052 272.8962,201.5012 C273.2482,201.0962 273.4242,200.6252 273.4242,200.0862 C273.4242,199.4942 273.2102,199.0252 272.7822,198.6792 C272.3602,198.3282 271.7772,198.1522 271.0332,198.1522 Z M268.2732,206.7562 C268.2732,207.4602 268.5162,208.0072 269.0032,208.4002 C269.4952,208.7932 270.1832,208.9892 271.0682,208.9892 C271.9412,208.9892 272.6212,208.7842 273.1072,208.3742 C273.5942,207.9642 273.8372,207.4012 273.8372,206.6862 C273.8372,206.1182 273.6082,205.6142 273.1512,205.1742 C272.6942,204.7292 271.8972,204.2982 270.7612,203.8822 C269.8872,204.2572 269.2552,204.6732 268.8622,205.1312 C268.4702,205.5822 268.2732,206.1242 268.2732,206.7562 Z M271.0512,196.9652 C272.2222,196.9652 273.1512,197.2382 273.8372,197.7832 C274.5222,198.3282 274.8652,199.0812 274.8652,200.0422 C274.8652,200.6742 274.6692,201.2522 274.2762,201.7732 C273.8842,202.2952 273.2572,202.7692 272.3952,203.1972 C273.4382,203.6952 274.1792,204.2192 274.6192,204.7702 C275.0582,205.3152 275.2782,205.9482 275.2782,206.6692 C275.2782,207.7352 274.9062,208.5882 274.1622,209.2262 C273.4182,209.8592 272.3982,210.1752 271.1032,210.1752 C269.7322,210.1752 268.6782,209.8772 267.9392,209.2792 C267.2012,208.6752 266.8322,207.8232 266.8322,206.7212 C266.8322,205.2512 267.7282,204.1052 269.5212,203.2852 C268.7132,202.8282 268.1332,202.3362 267.7812,201.8082 C267.4292,201.2752 267.2542,200.6802 267.2542,200.0242 C267.2542,199.0922 267.5962,198.3512 268.2822,197.8002 C268.9732,197.2442 269.8962,196.9652 271.0512,196.9652 Z M261.9012,210.0002 L260.4772,210.0002 L260.4772,200.8412 C260.4772,200.0802 260.5012,199.3592 260.5482,198.6792 C260.4252,198.8022 260.2872,198.9312 260.1352,199.0662 C259.9822,199.2012 259.2852,199.7722 258.0432,200.7802 L257.2692,199.7782 L260.6712,197.1502 L261.9012,197.1502 L261.9012,210.0002 Z M247.6892,203.5572 C247.6892,205.4262 247.9092,206.7892 248.3482,207.6442 C248.7882,208.4942 249.4882,208.9192 250.4492,208.9192 C251.4222,208.9192 252.1252,208.4882 252.5582,207.6272 C252.9982,206.7592 253.2182,205.4032 253.2182,203.5572 C253.2182,201.7122 252.9982,200.3612 252.5582,199.5062 C252.1252,198.6442 251.4222,198.2142 250.4492,198.2142 C249.4882,198.2142 248.7882,198.6382 248.3482,199.4882 C247.9092,200.3322 247.6892,201.6882 247.6892,203.5572 Z M254.7122,203.5572 C254.7122,205.7782 254.3602,207.4362 253.6572,208.5322 C252.9602,209.6282 251.8902,210.1752 250.4492,210.1752 C249.0662,210.1752 248.0142,209.6162 247.2942,208.4972 C246.5732,207.3722 246.2132,205.7252 246.2132,203.5572 C246.2132,201.3192 246.5612,199.6582 247.2592,198.5742 C247.9562,197.4902 249.0192,196.9482 250.4492,196.9482 C251.8442,196.9482 252.9012,197.5132 253.6222,198.6442 C254.3482,199.7752 254.7122,201.4132 254.7122,203.5572 Z M244.3412,210.0002 L235.8942,210.0002 L235.8942,208.7432 L239.2782,205.3412 C240.3092,204.2982 240.9892,203.5542 241.3172,203.1092 C241.6452,202.6642 241.8912,202.2302 242.0552,201.8082 C242.2202,201.3862 242.3022,200.9322 242.3022,200.4462 C242.3022,199.7602 242.0942,199.2182 241.6782,198.8202 C241.2622,198.4162 240.6842,198.2142 239.9462,198.2142 C239.4132,198.2142 238.9062,198.3012 238.4262,198.4772 C237.9512,198.6532 237.4212,198.9722 236.8352,199.4352 L236.0612,198.4422 C237.2452,197.4582 238.5342,196.9652 239.9292,196.9652 C241.1362,196.9652 242.0822,197.2762 242.7672,197.8972 C243.4532,198.5122 243.7962,199.3412 243.7962,200.3842 C243.7962,201.1992 243.5672,202.0052 243.1102,202.8012 C242.6532,203.5982 241.7982,204.6062 240.5442,205.8252 L237.7312,208.5762 L237.7312,208.6462 L244.3412,208.6462 L244.3412,210.0002 Z M226.3232,210.0002 L224.8992,210.0002 L224.8992,200.8412 C224.8992,200.0802 224.9232,199.3592 224.9702,198.6792 C224.8462,198.8022 224.7092,198.9312 224.5562,199.0662 C224.4042,199.2012 223.7072,199.7722 222.4652,200.7802 L221.6912,199.7782 L225.0932,197.1502 L226.3232,197.1502 L226.3232,210.0002 Z M213.9662,210.1752 C212.7232,210.1752 211.7542,209.7392 211.0562,208.8662 C210.3592,207.9932 210.0112,206.7742 210.0112,205.2102 C210.0112,203.6332 210.3622,202.4032 211.0652,201.5182 C211.7682,200.6332 212.7472,200.1912 214.0012,200.1912 C215.3192,200.1912 216.3332,200.6892 217.0422,201.6852 L217.1212,201.6852 L217.3322,200.3672 L218.4832,200.3672 L218.4832,214.3242 L217.0242,214.3242 L217.0242,210.2022 C217.0242,209.6162 217.0562,209.1182 217.1212,208.7082 L217.0072,208.7082 C216.3332,209.6862 215.3192,210.1752 213.9662,210.1752 Z M214.1852,208.9542 C215.1582,208.9542 215.8672,208.6932 216.3122,208.1722 C216.7582,207.6502 216.9952,206.7712 217.0242,205.5352 L217.0242,205.2102 C217.0242,203.8622 216.7962,202.8922 216.3392,202.3002 C215.8822,201.7092 215.1582,201.4132 214.1682,201.4132 C213.3122,201.4132 212.6562,201.7472 212.1992,202.4152 C211.7482,203.0772 211.5222,204.0142 211.5222,205.2272 C211.5222,206.4402 211.7452,207.3662 212.1902,208.0052 C212.6412,208.6372 213.3062,208.9542 214.1852,208.9542 Z" id="Fill-17" fill="#333333"></path>
                <path d="M643.8076,209.9998 L649.1336,198.4948 L642.1286,198.4948 L642.1286,197.1498 L650.6806,197.1498 L650.6806,198.3188 L645.4246,209.9998 L643.8076,209.9998 Z M637.2866,209.9998 L635.8626,209.9998 L635.8626,200.8418 C635.8626,200.0798 635.8856,199.3588 635.9326,198.6798 C635.8096,198.8028 635.6716,198.9318 635.5196,199.0658 C635.3676,199.2008 634.6696,199.7718 633.4276,200.7798 L632.6546,199.7778 L636.0556,197.1498 L637.2866,197.1498 L637.2866,209.9998 Z M623.0746,203.5578 C623.0746,205.4268 623.2936,206.7888 623.7336,207.6448 C624.1726,208.4938 624.8726,208.9188 625.8336,208.9188 C626.8066,208.9188 627.5096,208.4878 627.9436,207.6268 C628.3826,206.7598 628.6026,205.4028 628.6026,203.5578 C628.6026,201.7118 628.3826,200.3608 627.9436,199.5058 C627.5096,198.6448 626.8066,198.2138 625.8336,198.2138 C624.8726,198.2138 624.1726,198.6388 623.7336,199.4878 C623.2936,200.3318 623.0746,201.6878 623.0746,203.5578 Z M630.0966,203.5578 C630.0966,205.7778 629.7446,207.4368 629.0416,208.5318 C628.3446,209.6278 627.2756,210.1758 625.8336,210.1758 C624.4516,210.1758 623.3996,209.6158 622.6786,208.4968 C621.9576,207.3718 621.5976,205.7258 621.5976,203.5578 C621.5976,201.3188 621.9466,199.6578 622.6436,198.5738 C623.3406,197.4898 624.4046,196.9478 625.8336,196.9478 C627.2286,196.9478 628.2866,197.5138 629.0066,198.6448 C629.7336,199.7748 630.0966,201.4128 630.0966,203.5578 Z M619.7256,209.9998 L611.2796,209.9998 L611.2796,208.7428 L614.6626,205.3418 C615.6946,204.2988 616.3736,203.5548 616.7026,203.1088 C617.0306,202.6638 617.2766,202.2298 617.4406,201.8088 C617.6046,201.3868 617.6866,200.9328 617.6866,200.4458 C617.6866,199.7608 617.4786,199.2188 617.0626,198.8198 C616.6466,198.4158 616.0696,198.2138 615.3306,198.2138 C614.7976,198.2138 614.2906,198.3018 613.8106,198.4778 C613.3356,198.6528 612.8056,198.9728 612.2196,199.4358 L611.4466,198.4418 C612.6296,197.4578 613.9186,196.9658 615.3136,196.9658 C616.5206,196.9658 617.4666,197.2758 618.1526,197.8968 C618.8376,198.5128 619.1806,199.3418 619.1806,200.3848 C619.1806,201.1988 618.9526,202.0048 618.4956,202.8018 C618.0376,203.5988 617.1826,204.6058 615.9286,205.8248 L613.1166,208.5758 L613.1166,208.6458 L619.7256,208.6458 L619.7256,209.9998 Z M602.5426,210.1758 C601.1486,210.1758 600.0676,209.7478 599.2996,208.8928 C598.5376,208.0308 598.1576,206.8148 598.1576,205.2448 C598.1576,203.6338 598.5436,202.3888 599.3176,201.5098 C600.0966,200.6308 601.2036,200.1908 602.6396,200.1908 C603.1026,200.1908 603.5656,200.2408 604.0286,200.3408 C604.4916,200.4398 604.8546,200.5578 605.1186,200.6918 L604.6696,201.9318 C604.3476,201.8028 603.9956,201.6968 603.6156,201.6148 C603.2346,201.5268 602.8976,201.4828 602.6046,201.4828 C600.6476,201.4828 599.6686,202.7308 599.6686,205.2278 C599.6686,206.4108 599.9066,207.3188 600.3806,207.9518 C600.8616,208.5848 601.5706,208.9008 602.5076,208.9008 C603.3106,208.9008 604.1336,208.7288 604.9776,208.3828 L604.9776,209.6748 C604.3326,210.0088 603.5216,210.1758 602.5426,210.1758 Z M592.2596,201.4128 C591.4866,201.4128 590.8686,201.6648 590.4056,202.1688 C589.9486,202.6728 589.6786,203.3698 589.5966,204.2608 L594.6326,204.2608 C594.6326,203.3408 594.4276,202.6378 594.0176,202.1508 C593.6076,201.6588 593.0216,201.4128 592.2596,201.4128 Z M592.6556,210.1758 C591.2316,210.1758 590.1066,209.7418 589.2806,208.8748 C588.4596,208.0078 588.0496,206.8038 588.0496,205.2628 C588.0496,203.7098 588.4306,202.4768 589.1926,201.5618 C589.9596,200.6478 590.9886,200.1908 592.2776,200.1908 C593.4846,200.1908 594.4396,200.5898 595.1426,201.3868 C595.8456,202.1778 596.1976,203.2238 596.1976,204.5238 L596.1976,205.4468 L589.5616,205.4468 C589.5906,206.5778 589.8746,207.4368 590.4136,208.0218 C590.9586,208.6078 591.7236,208.9008 592.7076,208.9008 C593.7446,208.9008 594.7706,208.6848 595.7846,208.2508 L595.7846,209.5518 C595.2686,209.7738 594.7796,209.9328 594.3166,210.0258 C593.8596,210.1258 593.3056,210.1758 592.6556,210.1758 Z M581.1856,208.9538 C582.1816,208.9538 582.9026,208.6848 583.3476,208.1458 C583.7986,207.6008 584.0246,206.7248 584.0246,205.5178 L584.0246,205.2098 C584.0246,203.8448 583.7956,202.8718 583.3386,202.2918 C582.8876,201.7058 582.1636,201.4128 581.1676,201.4128 C580.3126,201.4128 579.6566,201.7468 579.1996,202.4148 C578.7476,203.0768 578.5226,204.0148 578.5226,205.2278 C578.5226,206.4578 578.7476,207.3868 579.1996,208.0138 C579.6506,208.6408 580.3126,208.9538 581.1856,208.9538 Z M584.1036,208.7078 L584.0246,208.7078 C583.3506,209.6868 582.3426,210.1758 581.0006,210.1758 C579.7416,210.1758 578.7596,209.7448 578.0566,208.8838 C577.3596,208.0218 577.0106,206.7978 577.0106,205.2098 C577.0106,203.6218 577.3626,202.3888 578.0656,201.5098 C578.7686,200.6308 579.7466,200.1908 581.0006,200.1908 C582.3076,200.1908 583.3096,200.6658 584.0066,201.6148 L584.1206,201.6148 L584.0596,200.9208 L584.0246,200.2438 L584.0246,196.3238 L585.4836,196.3238 L585.4836,209.9998 L584.2966,209.9998 L584.1036,208.7078 Z" id="Fill-19" fill="#333333"></path>
                <g id="Group-23" transform="translate(593.000000, 0.000000)">
                    <mask id="mask-2" fill="white">
                        <use xlink:href="#path-1"></use>
                    </mask>
                    <g id="Clip-22"></g>
                    <path d="M33.4072,13.9998 L38.7332,2.4948 L31.7282,2.4948 L31.7282,1.1498 L40.2802,1.1498 L40.2802,2.3188 L35.0242,13.9998 L33.4072,13.9998 Z M26.8862,13.9998 L25.4622,13.9998 L25.4622,4.8418 C25.4622,4.0798 25.4852,3.3588 25.5322,2.6798 C25.4092,2.8028 25.2712,2.9318 25.1192,3.0658 C24.9672,3.2008 24.2692,3.7718 23.0272,4.7798 L22.2542,3.7778 L25.6552,1.1498 L26.8862,1.1498 L26.8862,13.9998 Z M12.6742,7.5578 C12.6742,9.4268 12.8932,10.7888 13.3332,11.6448 C13.7722,12.4938 14.4722,12.9188 15.4332,12.9188 C16.4062,12.9188 17.1092,12.4878 17.5432,11.6268 C17.9822,10.7598 18.2022,9.4028 18.2022,7.5578 C18.2022,5.7118 17.9822,4.3608 17.5432,3.5058 C17.1092,2.6448 16.4062,2.2138 15.4332,2.2138 C14.4722,2.2138 13.7722,2.6388 13.3332,3.4878 C12.8932,4.3318 12.6742,5.6878 12.6742,7.5578 Z M19.6962,7.5578 C19.6962,9.7778 19.3442,11.4368 18.6412,12.5318 C17.9442,13.6278 16.8752,14.1758 15.4332,14.1758 C14.0512,14.1758 12.9992,13.6158 12.2782,12.4968 C11.5572,11.3718 11.1972,9.7258 11.1972,7.5578 C11.1972,5.3188 11.5462,3.6578 12.2432,2.5738 C12.9402,1.4898 14.0042,0.9478 15.4332,0.9478 C16.8282,0.9478 17.8862,1.5138 18.6062,2.6448 C19.3332,3.7748 19.6962,5.4128 19.6962,7.5578 Z M9.3252,13.9998 L0.8792,13.9998 L0.8792,12.7428 L4.2622,9.3418 C5.2942,8.2988 5.9732,7.5548 6.3022,7.1088 C6.6302,6.6638 6.8762,6.2298 7.0402,5.8088 C7.2042,5.3868 7.2862,4.9328 7.2862,4.4458 C7.2862,3.7608 7.0782,3.2188 6.6622,2.8198 C6.2462,2.4158 5.6692,2.2138 4.9302,2.2138 C4.3972,2.2138 3.8902,2.3018 3.4102,2.4778 C2.9352,2.6528 2.4052,2.9728 1.8192,3.4358 L1.0462,2.4418 C2.2292,1.4578 3.5182,0.9658 4.9132,0.9658 C6.1202,0.9658 7.0662,1.2758 7.7522,1.8968 C8.4372,2.5128 8.7802,3.3418 8.7802,4.3848 C8.7802,5.1988 8.5522,6.0048 8.0952,6.8018 C7.6372,7.5988 6.7822,8.6058 5.5282,9.8248 L2.7162,12.5758 L2.7162,12.6458 L9.3252,12.6458 L9.3252,13.9998 Z" id="Fill-21" fill="#333333" mask="url(#mask-2)"></path>
                </g>
                <path d="M258.7979,6.1512 C260.1519,6.1512 261.2149,6.4882 261.9879,7.1622 C262.7679,7.8302 263.1569,8.7472 263.1569,9.9132 C263.1569,11.2432 262.7329,12.2862 261.8829,13.0422 C261.0389,13.7972 259.8729,14.1752 258.3849,14.1752 C256.9379,14.1752 255.8329,13.9442 255.0709,13.4812 L255.0709,12.0752 C255.4819,12.3382 255.9909,12.5472 256.6009,12.6992 C257.2099,12.8452 257.8109,12.9192 258.4019,12.9192 C259.4339,12.9192 260.2339,12.6752 260.8019,12.1892 C261.3759,11.7032 261.6629,11.0002 261.6629,10.0802 C261.6629,8.2872 260.5649,7.3902 258.3669,7.3902 C257.8109,7.3902 257.0669,7.4752 256.1349,7.6452 L255.3789,7.1622 L255.8619,1.1502 L262.2519,1.1502 L262.2519,2.4952 L257.1109,2.4952 L256.7849,6.3532 C257.4589,6.2182 258.1299,6.1512 258.7979,6.1512 Z M249.8859,14.0002 L248.4619,14.0002 L248.4619,4.8412 C248.4619,4.0802 248.4849,3.3592 248.5319,2.6792 C248.4089,2.8022 248.2719,2.9312 248.1189,3.0662 C247.9669,3.2012 247.2699,3.7722 246.0269,4.7802 L245.2539,3.7782 L248.6549,1.1502 L249.8859,1.1502 L249.8859,14.0002 Z M235.6739,7.5572 C235.6739,9.4262 235.8939,10.7892 236.3329,11.6442 C236.7729,12.4942 237.4729,12.9192 238.4339,12.9192 C239.4059,12.9192 240.1099,12.4882 240.5429,11.6272 C240.9829,10.7592 241.2019,9.4032 241.2019,7.5572 C241.2019,5.7122 240.9829,4.3612 240.5429,3.5052 C240.1099,2.6442 239.4059,2.2132 238.4339,2.2132 C237.4729,2.2132 236.7729,2.6382 236.3329,3.4882 C235.8939,4.3322 235.6739,5.6882 235.6739,7.5572 Z M242.6959,7.5572 C242.6959,9.7782 242.3449,11.4362 241.6419,12.5322 C240.9439,13.6282 239.8749,14.1752 238.4339,14.1752 C237.0509,14.1752 235.9989,13.6162 235.2779,12.4972 C234.5579,11.3722 234.1969,9.7252 234.1969,7.5572 C234.1969,5.3192 234.5459,3.6582 235.2429,2.5742 C235.9409,1.4902 237.0039,0.9482 238.4339,0.9482 C239.8279,0.9482 240.8859,1.5132 241.6069,2.6442 C242.3329,3.7752 242.6959,5.4132 242.6959,7.5572 Z M232.3249,14.0002 L223.8789,14.0002 L223.8789,12.7432 L227.2629,9.3412 C228.2939,8.2982 228.9739,7.5542 229.3019,7.1092 C229.6299,6.6642 229.8759,6.2302 230.0399,5.8082 C230.2039,5.3862 230.2859,4.9322 230.2859,4.4462 C230.2859,3.7602 230.0779,3.2182 229.6619,2.8202 C229.2459,2.4162 228.6689,2.2132 227.9309,2.2132 C227.3979,2.2132 226.8909,2.3012 226.4099,2.4772 C225.9359,2.6532 225.4049,2.9722 224.8189,3.4352 L224.0459,2.4422 C225.2299,1.4582 226.5189,0.9652 227.9129,0.9652 C229.1199,0.9652 230.0669,1.2762 230.7519,1.8972 C231.4379,2.5122 231.7799,3.3412 231.7799,4.3842 C231.7799,5.1992 231.5519,6.0052 231.0949,6.8012 C230.6379,7.5982 229.7819,8.6062 228.5279,9.8252 L225.7159,12.5762 L225.7159,12.6462 L232.3249,12.6462 L232.3249,14.0002 Z" id="Fill-24" fill="#333333"></path>
                <path d="M254,46.9998 C254,53.0748 249.075,57.9998 243,57.9998 C236.925,57.9998 232,53.0748 232,46.9998 C232,40.9248 236.925,35.9998 243,35.9998 C249.075,35.9998 254,40.9248 254,46.9998" id="Fill-34" fill="#F7FAF8"></path>
                <path d="M243,38.9998 C247.418,38.9998 251,42.5818 251,46.9998 L257,46.9998 C257,39.2678 250.732,32.9998 243,32.9998 L243,38.9998 Z M235,46.9998 C235,42.5818 238.582,38.9998 243,38.9998 L243,32.9998 C235.268,32.9998 229,39.2678 229,46.9998 L235,46.9998 Z M243,54.9998 C238.582,54.9998 235,51.4178 235,46.9998 L229,46.9998 C229,54.7318 235.268,60.9998 243,60.9998 L243,54.9998 Z M251,46.9998 C251,51.4178 247.418,54.9998 243,54.9998 L243,60.9998 C250.732,60.9998 257,54.7318 257,46.9998 L251,46.9998 Z" id="Fill-36" fill="#00ADD9"></path>
                <g id="Group-5" transform="translate(600.000000, 32.948000)">
                    <path d="M25,14.0518 C25,20.1268 20.075,25.0518 14,25.0518 C7.925,25.0518 3,20.1268 3,14.0518 C3,7.9768 7.925,3.0518 14,3.0518 C20.075,3.0518 25,7.9768 25,14.0518" id="Fill-38" fill="#F7FAF8"></path>
                    <path d="M14,6.0518 C18.418,6.0518 22,9.6338 22,14.0518 L28,14.0518 C28,6.3198 21.732,0.0518 14,0.0518 L14,6.0518 Z M6,14.0518 C6,9.6338 9.582,6.0518 14,6.0518 L14,0.0518 C6.268,0.0518 0,6.3198 0,14.0518 L6,14.0518 Z M14,22.0518 C9.582,22.0518 6,18.4698 6,14.0518 L0,14.0518 C0,21.7838 6.268,28.0518 14,28.0518 L14,22.0518 Z M22,14.0518 C22,18.4698 18.418,22.0518 14,22.0518 L14,28.0518 C21.732,28.0518 28,21.7838 28,14.0518 L22,14.0518 Z" id="Fill-40" fill="#00ADD9"></path>
                </g>
                <path d="M254,244.9998 C254,251.0748 249.075,255.9998 243,255.9998 C236.925,255.9998 232,251.0748 232,244.9998 C232,238.9248 236.925,233.9998 243,233.9998 C249.075,233.9998 254,238.9248 254,244.9998" id="Fill-42" fill="#F7FAF8"></path>
                <path d="M243,236.9998 C247.418,236.9998 251,240.5818 251,244.9998 L257,244.9998 C257,237.2678 250.732,230.9998 243,230.9998 L243,236.9998 Z M235,244.9998 C235,240.5818 238.582,236.9998 243,236.9998 L243,230.9998 C235.268,230.9998 229,237.2678 229,244.9998 L235,244.9998 Z M243,252.9998 C238.582,252.9998 235,249.4178 235,244.9998 L229,244.9998 C229,252.7318 235.268,258.9998 243,258.9998 L243,252.9998 Z M251,244.9998 C251,249.4178 247.418,252.9998 243,252.9998 L243,258.9998 C250.732,258.9998 257,252.7318 257,244.9998 L251,244.9998 Z" id="Fill-44" fill="#B8B8B8"></path>
                <g id="Group-6" transform="translate(600.000000, 230.948000)">
                    <path d="M25,14.0518 C25,20.1268 20.075,25.0518 14,25.0518 C7.925,25.0518 3,20.1268 3,14.0518 C3,7.9768 7.925,3.0518 14,3.0518 C20.075,3.0518 25,7.9768 25,14.0518" id="Fill-46" fill="#F7FAF8"></path>
                    <path d="M14,6.0518 C18.418,6.0518 22,9.6338 22,14.0518 L28,14.0518 C28,6.3198 21.732,0.0518 14,0.0518 L14,6.0518 Z M6,14.0518 C6,9.6338 9.582,6.0518 14,6.0518 L14,0.0518 C6.268,0.0518 0,6.3198 0,14.0518 L6,14.0518 Z M14,22.0518 C9.582,22.0518 6,18.4698 6,14.0518 L0,14.0518 C0,21.7838 6.268,28.0518 14,28.0518 L14,22.0518 Z M22,14.0518 C22,18.4698 18.418,22.0518 14,22.0518 L14,28.0518 C21.732,28.0518 28,21.7838 28,14.0518 L22,14.0518 Z" id="Fill-48" fill="#00ADD9"></path>
                </g>
                <path d="M254,442.9998 C254,449.0748 249.075,453.9998 243,453.9998 C236.925,453.9998 232,449.0748 232,442.9998 C232,436.9248 236.925,431.9998 243,431.9998 C249.075,431.9998 254,436.9248 254,442.9998" id="Fill-50" fill="#F7FAF8"></path>
                <path d="M243,434.9998 C247.418,434.9998 251,438.5818 251,442.9998 L257,442.9998 C257,435.2688 250.732,428.9998 243,428.9998 L243,434.9998 Z M235,442.9998 C235,438.5818 238.582,434.9998 243,434.9998 L243,428.9998 C235.268,428.9998 229,435.2688 229,442.9998 L235,442.9998 Z M243,450.9998 C238.582,450.9998 235,447.4188 235,442.9998 L229,442.9998 C229,450.7318 235.268,456.9998 243,456.9998 L243,450.9998 Z M251,442.9998 C251,447.4188 247.418,450.9998 243,450.9998 L243,456.9998 C250.732,456.9998 257,450.7318 257,442.9998 L251,442.9998 Z" id="Fill-52" fill="#C2C2C2"></path>
                <g id="Group-8" transform="translate(600.000000, 428.948000)">
                    <path d="M25,14.0518 C25,20.1268 20.075,25.0518 14,25.0518 C7.925,25.0518 3,20.1268 3,14.0518 C3,7.9768 7.925,3.0518 14,3.0518 C20.075,3.0518 25,7.9768 25,14.0518" id="Fill-54" fill="#F7FAF8"></path>
                    <path d="M14,6.0518 C18.418,6.0518 22,9.6338 22,14.0518 L28,14.0518 C28,6.3208 21.732,0.0518 14,0.0518 L14,6.0518 Z M6,14.0518 C6,9.6338 9.582,6.0518 14,6.0518 L14,0.0518 C6.268,0.0518 0,6.3208 0,14.0518 L6,14.0518 Z M14,22.0518 C9.582,22.0518 6,18.4708 6,14.0518 L0,14.0518 C0,21.7838 6.268,28.0518 14,28.0518 L14,22.0518 Z M22,14.0518 C22,18.4708 18.418,22.0518 14,22.0518 L14,28.0518 C21.732,28.0518 28,21.7838 28,14.0518 L22,14.0518 Z" id="Fill-56" fill="#B8B8B8"></path>
                </g>
                <path d="M254,637.9998 C254,644.0748 249.075,648.9998 243,648.9998 C236.925,648.9998 232,644.0748 232,637.9998 C232,631.9248 236.925,626.9998 243,626.9998 C249.075,626.9998 254,631.9248 254,637.9998" id="Fill-58" fill="#F7FAF8"></path>
                <path d="M243,629.9998 C247.418,629.9998 251,633.5818 251,637.9998 L257,637.9998 C257,630.2688 250.732,623.9998 243,623.9998 L243,629.9998 Z M235,637.9998 C235,633.5818 238.582,629.9998 243,629.9998 L243,623.9998 C235.268,623.9998 229,630.2688 229,637.9998 L235,637.9998 Z M243,645.9998 C238.582,645.9998 235,642.4188 235,637.9998 L229,637.9998 C229,645.7318 235.268,651.9998 243,651.9998 L243,645.9998 Z M251,637.9998 C251,642.4188 247.418,645.9998 243,645.9998 L243,651.9998 C250.732,651.9998 257,645.7318 257,637.9998 L251,637.9998 Z" id="Fill-60" fill="#B8B8B8"></path>
                <g id="Group-9" transform="translate(600.000000, 623.948000)">
                    <path d="M25,14.0518 C25,20.1268 20.075,25.0518 14,25.0518 C7.925,25.0518 3,20.1268 3,14.0518 C3,7.9768 7.925,3.0518 14,3.0518 C20.075,3.0518 25,7.9768 25,14.0518" id="Fill-62" fill="#F7FAF8"></path>
                    <path d="M14,6.0518 C18.418,6.0518 22,9.6338 22,14.0518 L28,14.0518 C28,6.3208 21.732,0.0518 14,0.0518 L14,6.0518 Z M6,14.0518 C6,9.6338 9.582,6.0518 14,6.0518 L14,0.0518 C6.268,0.0518 0,6.3208 0,14.0518 L6,14.0518 Z M14,22.0518 C9.582,22.0518 6,18.4708 6,14.0518 L0,14.0518 C0,21.7838 6.268,28.0518 14,28.0518 L14,22.0518 Z M22,14.0518 C22,18.4708 18.418,22.0518 14,22.0518 L14,28.0518 C21.732,28.0518 28,21.7838 28,14.0518 L22,14.0518 Z" id="Fill-64" fill="#B8B8B8"></path>
                </g>
                <path d="M227,247.4998 C227.8,249.4998 237,262.9998 241.5,269.4998 C246,262.9998 258.5,243.9998 258.5,239.9998 C258.5,235.9998 256,222.4998 243,222.4998 C230,222.4998 225.5,234.9998 225.5,238.4998 C225.5,241.9998 226,244.9998 227,247.4998" id="Fill-66" fill="#FFFFFF"></path>
                <path d="M242.2061,243.4788 C239.7621,243.4788 237.7731,241.4718 237.7731,239.0038 C237.7731,236.5368 239.7621,234.5298 242.2061,234.5298 C244.6501,234.5298 246.6391,236.5368 246.6391,239.0038 C246.6391,241.4718 244.6501,243.4788 242.2061,243.4788 M242.2061,232.7398 C238.7851,232.7398 236.0001,235.5508 236.0001,239.0038 C236.0001,242.4578 238.7851,245.2688 242.2061,245.2688 C245.6271,245.2688 248.4121,242.4578 248.4121,239.0038 C248.4121,235.5508 245.6271,232.7398 242.2061,232.7398" id="Fill-68" fill="#00ADD9"></path>
                <path d="M254.1641,250.1263 L242.0011,267.8553 L229.8201,250.0993 C225.2101,243.8953 225.8711,233.7053 231.2341,228.2923 C234.1101,225.3893 237.9341,223.7903 242.0011,223.7903 C246.0691,223.7903 249.8931,225.3893 252.7691,228.2923 C258.1331,233.7053 258.7941,243.8953 254.1641,250.1263 M254.0231,227.0263 C250.8121,223.7853 246.5421,222.0003 242.0011,222.0003 C237.4601,222.0003 233.1911,223.7853 229.9801,227.0263 C224.0381,233.0233 223.2991,244.3083 228.3811,251.1453 L242.0011,271.0003 L255.6021,251.1723 C260.7041,244.3083 259.9661,233.0233 254.0231,227.0263" id="Fill-70" fill="#00ADD9"></path>
                <path d="M248,238.9998 C248,242.3138 245.313,244.9998 242,244.9998 C238.687,244.9998 236,242.3138 236,238.9998 C236,235.6868 238.687,232.9998 242,232.9998 C245.313,232.9998 248,235.6868 248,238.9998" id="Fill-72" fill="#00ADD9"></path>
                <text id="Implement-the-system" font-family="OpenSans-Regular, Open Sans" font-size="16" font-weight="normal" fill="#000000">
                    <tspan x="145" y="287.948">Implement the system</tspan>
                    <tspan x="145" y="309.948">protocol, RPS API, wallets.</tspan>
                </text>
                <text id="Release-VM-and-Petri" font-family="OpenSans-Regular, Open Sans" font-size="16" font-weight="normal" fill="#000000">
                    <tspan x="145" y="485.948">Release VM and Petri Net</tspan>
                    <tspan x="145" y="507.948">editor for smart contracts.</tspan>
                </text>
                <text id="Continuously-improve" font-family="OpenSans-Regular, Open Sans" font-size="16" font-weight="normal" fill="#000000">
                    <tspan x="145" y="680.948">Continuously improve the protocol.</tspan>
                </text>
                <text id="Launch-the-project." font-family="OpenSans-Regular, Open Sans" font-size="16" font-weight="normal" line-spacing="24" fill="#000000">
                    <tspan x="145" y="88.948">Launch the project. Analyse</tspan>
                    <tspan x="145" y="112.948">the architecture of various known</tspan>
                    <tspan x="145" y="136.948">blockchains for existing problems</tspan>
                    <tspan x="145" y="160.948">and ways to solve them.</tspan>
                </text>
                <text id="Form-a-team-of-devel" font-family="OpenSans-Regular, Open Sans" font-size="16" font-weight="normal" fill="#000000">
                    <tspan x="516" y="89.948">Form a team of developers</tspan>
                    <tspan x="516" y="111.948">to create a new architecture.</tspan>
                </text>
                <text id="Launch-the-test-net." font-family="OpenSans-Regular, Open Sans" font-size="16" font-weight="normal" fill="#000000">
                    <tspan x="517" y="287.948">Launch the test net.</tspan>
                </text>
                <text id="Fully-implement-SHAR" font-family="OpenSans-Regular, Open Sans" font-size="16" font-weight="normal" fill="#000000">
                    <tspan x="517" y="485.948">Fully implement SHARNELL</tspan>
                    <tspan x="517" y="507.948">Smart Contracts.</tspan>
                </text>
                <text id="Create-a-gateway-for" font-family="OpenSans-Regular, Open Sans" font-size="16" font-weight="normal" fill="#000000">
                    <tspan x="517" y="680.948">Create a gateway for an automatic</tspan>
                    <tspan x="517" y="702.948">transfer of smart contracts from</tspan>
                    <tspan x="517" y="724.948">other systems to Enecuum.</tspan>
                </text>
            </g>
        </g>
    </g>
</svg>