<?xml version="1.0" encoding="UTF-8"?>
<svg width="375px" height="754px" viewBox="0 0 375 754" version="1.1" xmlns="http://www.w3.org/2000/svg" xmlns:xlink="http://www.w3.org/1999/xlink">
    <!-- Generator: Sketch 48.2 (47327) - http://www.bohemiancoding.com/sketch -->
    <title>Artboard 2</title>
    <desc>Created with Sketch.</desc>
    <defs>
        <polygon id="path-1" points="0.3269 0.825 342.0139 0.825 342.0139 189.7708 0.3269 189.7708"></polygon>
        <polygon id="path-3" points="0 0.9368 181.5059 0.9368 181.5059 189.8838 0 189.8838"></polygon>
        <polygon id="path-5" points="0 0.7552 346.015 0.7552 346.015 375 0 375"></polygon>
        <polygon id="path-7" points="0.2004 0.816 22.0964 0.816 22.0964 22.7104 0.2004 22.7104"></polygon>
        <polygon id="path-9" points="0.7004 0.816 22.5964 0.816 22.5964 22.7104 0.7004 22.7104"></polygon>
    </defs>
    <g id="Page-1" stroke="none" stroke-width="1" fill="none" fill-rule="evenodd">
        <g id="Artboard-2">
            <g id="Group" transform="translate(14.000000, 14.000000)">
                <g id="Page-1" transform="translate(0.000000, 11.000000)">
                    <g id="Group-3" transform="translate(4.000000, 0.175000)">
                        <mask id="mask-2" fill="white">
                            <use xlink:href="#path-1"></use>
                        </mask>
                        <g id="Clip-2"></g>
                        <path d="M92.3379,189.7708 L247.5659,189.7708 C299.7279,189.7708 342.0139,147.4738 342.0139,95.2978 C342.0139,43.1218 299.7279,0.8248 247.5659,0.8248 L0.3269,0.8248 L0.3269,3.6588 L247.5659,3.6588 C298.1629,3.6588 339.1809,44.6868 339.1809,95.2988 C339.1809,145.9088 298.1629,186.9368 247.5659,186.9368 L92.3379,186.9368 L92.3379,189.7708 Z" id="Fill-1" fill="#00ADD9" mask="url(#mask-2)"></path>
                    </g>
                    <path d="M3.2651,562.1709 L251.5651,562.1709 C303.7271,562.1709 346.0141,519.8739 346.0141,467.6979 C346.0141,415.5219 303.7271,373.2239 251.5651,373.2239 L96.3381,373.2239 L96.3381,376.0589 L251.5651,376.0589 C302.1631,376.0589 343.1811,417.0869 343.1811,467.6979 C343.1811,518.3079 302.1631,559.3369 251.5651,559.3369 L3.2651,559.3369 L3.2651,562.1709 Z" id="Fill-4" fill="#00ADD9"></path>
                    <g id="Group-8" transform="translate(0.000000, 186.175000)">
                        <mask id="mask-4" fill="white">
                            <use xlink:href="#path-3"></use>
                        </mask>
                        <g id="Clip-7"></g>
                        <path d="M181.5059,0.9368 L94.4489,0.9368 C42.2859,0.9368 -0.0001,43.2338 -0.0001,95.4098 C-0.0001,147.5858 42.2859,189.8838 94.4499,189.8838 L181.5059,189.8838 L181.5059,187.0488 L94.4489,187.0488 C43.8519,187.0488 2.8329,146.0208 2.8329,95.4098 C2.8329,44.7998 43.8519,3.7708 94.4489,3.7708 L181.5059,3.7708 L181.5059,0.9368 Z" id="Fill-6" fill="#00ADD9" mask="url(#mask-4)"></path>
                    </g>
                    <g id="Group-11" transform="translate(0.000000, 187.175000)">
                        <mask id="mask-6" fill="white">
                            <use xlink:href="#path-5"></use>
                        </mask>
                        <g id="Clip-10"></g>
                        <path d="M82,0.7552 L82,3.6152 C37.291,9.6892 2.833,48.0272 2.833,94.4152 C2.833,145.0262 43.852,186.0522 94.449,186.0522 L251.565,186.0522 C303.729,186.0522 346.015,228.3512 346.015,280.5272 C346.015,332.7032 303.729,375.0002 251.565,375.0002 L3.265,375.0002 L3.265,372.1662 L251.565,372.1662 C302.163,372.1662 343.181,331.1362 343.181,280.5272 C343.181,229.9162 302.163,188.8882 251.565,188.8882 L94.449,188.8882 C42.286,188.8882 0,146.5912 0,94.4152 C0,46.4602 35.72,6.8502 82,0.7552" id="Fill-9" fill="#CCCCCC" mask="url(#mask-6)"></path>
                    </g>
                </g>
                <text id="Implement-the-system-Copy" font-family="OpenSans-Regular, Open Sans" font-size="13" font-weight="normal" fill="#000000">
                    <tspan x="33" y="259">Implement the system</tspan>
                    <tspan x="33" y="277">protocol, RPS API, wallets.</tspan>
                </text>
                <text id="Release-VM-and-Petri-Copy" font-family="OpenSans-Regular, Open Sans" font-size="13" font-weight="normal" fill="#000000">
                    <tspan x="32" y="450">Release VM and Petri Net</tspan>
                    <tspan x="32" y="468">editor for smart contracts.</tspan>
                </text>
                <text id="Continuously-improve" font-family="OpenSans-Regular, Open Sans" font-size="13" font-weight="normal" fill="#000000">
                    <tspan x="32" y="632">Continuously improve</tspan>
                    <tspan x="32" y="650">the protocol.</tspan>
                </text>
                <text id="Launch-the-project." font-family="OpenSans-Regular, Open Sans" font-size="13" font-weight="normal" line-spacing="19" fill="#000000">
                    <tspan x="31" y="72">Launch the project.</tspan>
                    <tspan x="31" y="91">Analyse the architecture</tspan>
                    <tspan x="31" y="110">of various known</tspan>
                    <tspan x="31" y="129">blockchains for existing</tspan>
                    <tspan x="31" y="148">problems and ways</tspan>
                    <tspan x="31" y="167">to solve them.</tspan>
                </text>
                <text id="Form-a-team-of-devel" font-family="OpenSans-Regular, Open Sans" font-size="13" font-weight="normal" line-spacing="19" fill="#000000">
                    <tspan x="199" y="72">Form a team</tspan>
                    <tspan x="199" y="91">of developers</tspan>
                    <tspan x="199" y="110">to create a new</tspan>
                    <tspan x="199" y="129">architecture.</tspan>
                </text>
                <text id="Launch-the-test-net.-Copy" font-family="OpenSans-Regular, Open Sans" font-size="13" font-weight="normal" fill="#000000">
                    <tspan x="201" y="259">Launch the test net.</tspan>
                </text>
                <text id="Fully-implement-SHAR" font-family="OpenSans-Regular, Open Sans" font-size="13" font-weight="normal" fill="#000000">
                    <tspan x="201" y="451">Fully implement</tspan>
                    <tspan x="201" y="469">SHARNELL</tspan>
                    <tspan x="201" y="487">Smart Contracts.</tspan>
                </text>
                <text id="Create-a-gateway-for" font-family="OpenSans-Regular, Open Sans" font-size="13" font-weight="normal" fill="#000000">
                    <tspan x="201" y="632">Create a gateway</tspan>
                    <tspan x="201" y="650">for an automatic</tspan>
                    <tspan x="201" y="668">transfer of smart</tspan>
                    <tspan x="201" y="686">contracts from</tspan>
                    <tspan x="201" y="704">other systems</tspan>
                    <tspan x="201" y="722">to Enecuum.</tspan>
                </text>
                <path d="M270.021,594.204 C269.289,594.204 268.714,594.38 268.297,594.731 C267.881,595.083 267.674,595.552 267.674,596.138 C267.674,596.677 267.846,597.14 268.193,597.526 C268.539,597.913 269.177,598.3 270.109,598.686 C270.947,598.335 271.539,597.957 271.884,597.553 C272.23,597.163 272.418,596.658 272.412,596.138 C272.412,595.546 272.198,595.078 271.77,594.731 C271.347,594.38 270.764,594.204 270.021,594.204 Z M267.26,602.808 C267.26,603.512 267.504,604.059 267.991,604.452 C268.483,604.845 269.17,605.042 270.055,605.042 C270.928,605.042 271.609,604.836 272.095,604.426 C272.582,604.016 272.825,603.453 272.825,602.739 C272.825,602.17 272.595,601.666 272.138,601.226 C271.681,600.781 270.885,600.35 269.749,599.934 C268.875,600.309 268.243,600.725 267.849,601.183 C267.458,601.634 267.26,602.176 267.26,602.808 Z M270.039,593.017 C271.21,593.017 272.138,593.29 272.825,593.835 C273.509,594.38 273.853,595.133 273.853,596.094 C273.853,596.726 273.657,597.304 273.263,597.825 C272.872,598.347 272.244,598.822 271.383,599.249 C272.426,599.747 273.167,600.271 273.607,600.823 C274.046,601.367 274.266,602 274.266,602.721 C274.266,603.787 273.894,604.64 273.15,605.279 C272.406,605.911 271.385,606.227 270.09,606.227 C268.72,606.227 267.666,605.929 266.927,605.331 C266.189,604.727 265.82,603.875 265.82,602.773 C265.82,601.303 266.715,600.157 268.509,599.337 C267.7,598.88 267.12,598.387 266.77,597.86 C266.419,597.332 266.235,596.71 266.242,596.076 C266.242,595.144 266.584,594.404 267.27,593.852 C267.961,593.296 268.884,593.017 270.039,593.017 Z M260.888,606.052 L259.464,606.052 L259.464,596.893 C259.464,596.132 259.489,595.411 259.535,594.731 C259.402,594.865 259.264,594.994 259.123,595.118 C258.969,595.253 258.273,595.824 257.031,596.832 L256.257,595.83 L259.658,593.202 L260.888,593.202 L260.888,606.052 Z M246.678,599.609 C246.678,601.478 246.899,602.841 247.337,603.697 C247.778,604.547 248.478,604.971 249.438,604.971 C250.411,604.971 251.114,604.541 251.547,603.679 C251.987,602.811 252.207,601.455 252.207,599.608 C252.207,597.764 251.987,596.413 251.546,595.558 C251.114,594.697 250.411,594.266 249.438,594.266 C248.478,594.266 247.778,594.69 247.337,595.54 C246.898,596.384 246.677,597.74 246.677,599.609 L246.678,599.609 Z M253.7,599.609 C253.7,601.83 253.349,603.488 252.646,604.584 C251.949,605.68 250.879,606.227 249.438,606.227 C248.054,606.227 247.003,605.668 246.283,604.549 C245.563,603.424 245.202,601.777 245.202,599.608 C245.202,597.371 245.55,595.71 246.248,594.626 C246.945,593.542 248.007,593 249.438,593 C250.833,593 251.889,593.565 252.611,594.697 C253.337,595.827 253.701,597.465 253.701,599.609 L253.7,599.609 Z M243.33,606.052 L234.882,606.052 L234.882,604.795 L238.266,601.393 C239.298,600.35 239.978,599.606 240.306,599.161 C240.609,598.762 240.857,598.324 241.044,597.86 C241.209,597.438 241.291,596.984 241.291,596.498 C241.291,595.812 241.083,595.27 240.667,594.872 C240.25,594.468 239.673,594.266 238.934,594.266 C238.417,594.264 237.902,594.352 237.415,594.53 C236.94,594.705 236.41,595.024 235.824,595.488 L235.049,594.494 C236.234,593.51 237.523,593.017 238.917,593.017 C240.125,593.017 241.071,593.328 241.756,593.949 C242.442,594.564 242.785,595.393 242.785,596.436 C242.785,597.251 242.555,598.057 242.098,598.853 C241.641,599.65 240.787,600.658 239.533,601.877 L236.719,604.628 L236.719,604.698 L243.33,604.698 L243.33,606.052 Z M225.655,601.771 L225.655,597.5 C225.655,596.662 225.685,595.716 225.743,594.661 L225.672,594.661 C225.437,595.142 225.173,595.609 224.881,596.058 L220.865,601.771 L225.655,601.771 Z M228.959,603.098 L227.052,603.098 L227.052,606.052 L225.655,606.052 L225.655,603.099 L219.406,603.099 L219.406,601.825 L225.505,593.132 L227.052,593.132 L227.052,601.771 L228.959,601.771 L228.959,603.099 L228.959,603.098 Z M212.955,606.227 C211.712,606.227 210.743,605.791 210.044,604.918 C209.347,604.045 209,602.826 209,601.262 C209,599.685 209.35,598.455 210.053,597.571 C210.757,596.685 211.736,596.243 212.99,596.243 C214.307,596.243 215.322,596.741 216.031,597.737 L216.111,597.737 L216.321,596.419 L217.471,596.419 L217.471,610.376 L216.012,610.376 L216.012,606.254 C216.012,605.668 216.045,605.17 216.11,604.76 L215.996,604.76 C215.322,605.739 214.307,606.227 212.955,606.227 Z M213.174,605.006 C214.147,605.006 214.856,604.746 215.301,604.224 C215.747,603.702 215.984,602.824 216.012,601.587 L216.012,601.262 C216.012,599.914 215.785,598.944 215.328,598.351 C214.871,597.761 214.148,597.465 213.157,597.465 C212.3,597.465 211.645,597.799 211.188,598.467 C210.738,599.129 210.51,600.066 210.51,601.28 C210.51,602.492 210.734,603.418 211.178,604.057 C211.63,604.689 212.295,605.007 213.174,605.007 L213.174,605.006 Z" id="Fill-14" fill="#333333"></path>
                <path d="M91.023,594.266 C90.185,594.266 89.538,594.537 89.081,595.075 C88.624,595.615 88.395,596.365 88.395,597.325 C88.395,598.168 88.606,598.834 89.028,599.32 C89.45,599.8 90.092,600.04 90.953,600.04 C91.486,600.04 91.976,599.932 92.421,599.715 C92.848,599.519 93.214,599.212 93.484,598.828 C93.742,598.453 93.871,598.06 93.871,597.65 C93.871,597.035 93.751,596.466 93.511,595.945 C93.293,595.451 92.943,595.025 92.5,594.715 C92.067,594.414 91.55,594.256 91.023,594.265 L91.023,594.266 Z M95.347,598.687 C95.347,603.714 93.402,606.227 89.512,606.227 C88.832,606.227 88.292,606.169 87.894,606.052 L87.894,604.795 C88.412,604.954 88.952,605.033 89.494,605.024 C90.9,605.024 91.961,604.59 92.676,603.723 C93.396,602.85 93.789,601.513 93.853,599.715 L93.748,599.715 C93.43,600.198 92.987,600.583 92.465,600.831 C91.932,601.083 91.331,601.209 90.663,601.209 C89.526,601.209 88.623,600.87 87.956,600.189 C87.288,599.51 86.954,598.561 86.954,597.342 C86.954,596.006 87.326,594.953 88.07,594.178 C88.82,593.406 89.805,593.018 91.023,593.018 C91.896,593.018 92.658,593.244 93.308,593.695 C93.965,594.14 94.468,594.793 94.82,595.656 C95.172,596.51 95.347,597.521 95.347,598.687 Z M82.006,606.052 L80.582,606.052 L80.582,596.894 C80.582,596.132 80.605,595.412 80.652,594.732 C80.529,594.855 80.392,594.984 80.239,595.119 C80.087,595.253 79.389,595.825 78.147,596.832 L77.374,595.83 L80.775,593.203 L82.005,593.203 L82.005,606.052 L82.006,606.052 Z M67.794,599.61 C67.794,601.479 68.014,602.841 68.453,603.698 C68.893,604.547 69.593,604.971 70.553,604.971 C71.526,604.971 72.229,604.541 72.663,603.679 C73.103,602.812 73.323,601.455 73.323,599.609 C73.323,597.764 73.103,596.413 72.663,595.558 C72.229,594.698 71.526,594.266 70.553,594.266 C69.593,594.266 68.893,594.691 68.453,595.54 C68.013,596.384 67.793,597.741 67.793,599.61 L67.794,599.61 Z M74.816,599.61 C74.816,601.83 74.465,603.489 73.762,604.584 C73.064,605.68 71.995,606.228 70.554,606.228 C69.171,606.228 68.119,605.668 67.398,604.549 C66.678,603.424 66.318,601.778 66.318,599.609 C66.318,597.371 66.666,595.71 67.363,594.626 C68.06,593.542 69.123,593 70.553,593 C71.948,593 73.006,593.566 73.726,594.698 C74.453,595.828 74.816,597.465 74.816,599.61 Z M64.445,606.052 L56,606.052 L56,604.795 L59.384,601.394 C60.414,600.351 61.094,599.607 61.423,599.162 C61.751,598.716 61.997,598.283 62.161,597.861 C62.325,597.439 62.407,596.985 62.407,596.498 C62.407,595.813 62.199,595.271 61.783,594.872 C61.367,594.468 60.79,594.266 60.052,594.266 C59.534,594.264 59.019,594.353 58.532,594.531 C58.057,594.705 57.526,595.025 56.94,595.489 L56.167,594.495 C57.35,593.51 58.64,593.018 60.034,593.018 C61.241,593.018 62.187,593.329 62.873,593.95 C63.559,594.565 63.901,595.394 63.901,596.437 C63.901,597.251 63.673,598.057 63.216,598.854 C62.759,599.651 61.903,600.659 60.649,601.877 L57.837,604.628 L57.837,604.699 L64.447,604.699 L64.447,606.052 L64.445,606.052 Z" id="Fill-16" fill="#333333"></path>
                <path d="M270.021,413.204 C269.289,413.204 268.714,413.38 268.297,413.731 C267.881,414.083 267.674,414.552 267.674,415.138 C267.674,415.677 267.846,416.14 268.193,416.526 C268.539,416.913 269.177,417.3 270.109,417.686 C270.947,417.335 271.539,416.957 271.884,416.553 C272.23,416.163 272.418,415.658 272.412,415.138 C272.412,414.546 272.198,414.078 271.77,413.731 C271.347,413.38 270.764,413.204 270.021,413.204 Z M267.26,421.808 C267.26,422.512 267.504,423.059 267.991,423.452 C268.483,423.845 269.17,424.042 270.055,424.042 C270.928,424.042 271.609,423.836 272.095,423.426 C272.582,423.016 272.825,422.453 272.825,421.739 C272.825,421.17 272.595,420.666 272.138,420.226 C271.681,419.781 270.885,419.35 269.749,418.934 C268.875,419.309 268.243,419.725 267.849,420.183 C267.458,420.634 267.26,421.176 267.26,421.808 Z M270.039,412.017 C271.21,412.017 272.138,412.29 272.825,412.835 C273.509,413.38 273.853,414.133 273.853,415.094 C273.853,415.726 273.657,416.304 273.263,416.825 C272.872,417.347 272.244,417.822 271.383,418.249 C272.426,418.747 273.167,419.271 273.607,419.823 C274.046,420.367 274.266,421 274.266,421.721 C274.266,422.787 273.894,423.64 273.15,424.279 C272.406,424.911 271.385,425.227 270.09,425.227 C268.72,425.227 267.666,424.929 266.927,424.331 C266.189,423.727 265.82,422.875 265.82,421.773 C265.82,420.303 266.715,419.157 268.509,418.337 C267.7,417.88 267.12,417.387 266.77,416.86 C266.419,416.332 266.235,415.71 266.242,415.076 C266.242,414.144 266.584,413.404 267.27,412.852 C267.961,412.296 268.884,412.017 270.039,412.017 Z M260.888,425.052 L259.464,425.052 L259.464,415.893 C259.464,415.132 259.489,414.411 259.535,413.731 C259.402,413.865 259.264,413.994 259.123,414.118 C258.969,414.253 258.273,414.824 257.031,415.832 L256.257,414.83 L259.658,412.202 L260.888,412.202 L260.888,425.052 Z M246.677,418.609 C246.677,420.478 246.898,421.841 247.336,422.697 C247.777,423.547 248.477,423.971 249.437,423.971 C250.41,423.971 251.113,423.541 251.546,422.679 C251.986,421.811 252.206,420.455 252.206,418.608 C252.206,416.764 251.986,415.413 251.545,414.558 C251.113,413.697 250.41,413.266 249.437,413.266 C248.477,413.266 247.777,413.69 247.336,414.54 C246.897,415.384 246.676,416.74 246.676,418.609 L246.677,418.609 Z M253.699,418.609 C253.699,420.83 253.348,422.488 252.645,423.584 C251.948,424.68 250.878,425.227 249.437,425.227 C248.053,425.227 247.002,424.668 246.282,423.549 C245.562,422.424 245.201,420.777 245.201,418.608 C245.201,416.371 245.549,414.71 246.247,413.626 C246.944,412.542 248.006,412 249.437,412 C250.832,412 251.888,412.565 252.61,413.697 C253.336,414.827 253.7,416.465 253.7,418.609 L253.699,418.609 Z M243.329,425.052 L234.881,425.052 L234.881,423.795 L238.265,420.393 C239.297,419.35 239.977,418.606 240.305,418.161 C240.608,417.762 240.856,417.324 241.043,416.86 C241.208,416.438 241.29,415.984 241.29,415.498 C241.29,414.812 241.082,414.27 240.666,413.872 C240.25,413.468 239.672,413.266 238.933,413.266 C238.416,413.264 237.901,413.352 237.414,413.53 C236.939,413.705 236.409,414.024 235.823,414.488 L235.048,413.494 C236.233,412.51 237.522,412.017 238.917,412.017 C240.124,412.017 241.07,412.328 241.755,412.949 C242.441,413.564 242.784,414.393 242.784,415.436 C242.784,416.251 242.554,417.057 242.097,417.853 C241.64,418.65 240.786,419.658 239.532,420.877 L236.718,423.628 L236.718,423.698 L243.329,423.698 L243.329,425.052 Z M227.869,415.225 C227.869,416.046 227.636,416.717 227.173,417.239 C226.717,417.76 226.067,418.108 225.223,418.284 L225.223,418.353 C226.253,418.483 227.019,418.811 227.516,419.339 C228.014,419.866 228.263,420.558 228.263,421.413 C228.263,422.638 227.839,423.581 226.99,424.243 C226.139,424.899 224.932,425.227 223.369,425.227 C222.689,425.227 222.065,425.175 221.497,425.069 C220.926,424.968 220.374,424.787 219.853,424.533 L219.853,423.144 C220.963,423.691 222.183,423.98 223.421,423.988 C225.641,423.988 226.751,423.118 226.751,421.378 C226.751,419.819 225.528,419.04 223.079,419.04 L221.813,419.04 L221.813,417.783 L223.095,417.783 C224.097,417.783 224.891,417.562 225.478,417.124 C226.064,416.679 226.358,416.063 226.358,415.279 C226.358,414.651 226.139,414.159 225.707,413.802 C225.279,413.444 224.696,413.266 223.957,413.266 C223.418,413.263 222.882,413.339 222.367,413.494 C221.869,413.646 221.3,413.928 220.662,414.338 L219.922,413.353 C220.469,412.928 221.084,412.598 221.743,412.378 C222.444,412.136 223.181,412.015 223.922,412.017 C225.17,412.017 226.139,412.305 226.832,412.879 C227.523,413.448 227.869,414.228 227.869,415.225 Z M212.955,425.227 C211.712,425.227 210.743,424.791 210.044,423.918 C209.347,423.045 209,421.826 209,420.262 C209,418.685 209.35,417.455 210.053,416.571 C210.757,415.685 211.736,415.243 212.99,415.243 C214.307,415.243 215.322,415.741 216.031,416.737 L216.111,416.737 L216.321,415.419 L217.471,415.419 L217.471,429.376 L216.012,429.376 L216.012,425.254 C216.012,424.668 216.045,424.17 216.11,423.76 L215.996,423.76 C215.322,424.739 214.307,425.227 212.955,425.227 Z M213.174,424.006 C214.147,424.006 214.856,423.746 215.301,423.224 C215.747,422.702 215.984,421.824 216.012,420.587 L216.012,420.262 C216.012,418.914 215.785,417.944 215.328,417.351 C214.871,416.761 214.148,416.465 213.157,416.465 C212.3,416.465 211.645,416.799 211.188,417.467 C210.738,418.129 210.51,419.066 210.51,420.28 C210.51,421.492 210.734,422.418 211.178,423.057 C211.63,423.689 212.295,424.007 213.174,424.007 L213.174,424.006 Z" id="Fill-22" fill="#333333"></path>
                <path d="M101.021,413.204 C100.289,413.204 99.715,413.38 99.298,413.731 C98.882,414.083 98.675,414.552 98.675,415.138 C98.675,415.677 98.847,416.14 99.193,416.526 C99.539,416.913 100.178,417.3 101.109,417.686 C101.947,417.335 102.539,416.957 102.885,416.553 C103.231,416.163 103.418,415.658 103.412,415.138 C103.412,414.546 103.198,414.078 102.77,413.731 C102.348,413.38 101.765,413.204 101.021,413.204 Z M98.261,421.808 C98.261,422.512 98.505,423.059 98.991,423.452 C99.483,423.845 100.171,424.042 101.056,424.042 C101.929,424.042 102.609,423.836 103.096,423.426 C103.582,423.016 103.825,422.453 103.825,421.739 C103.825,421.17 103.596,420.666 103.139,420.226 C102.682,419.781 101.886,419.35 100.749,418.934 C99.876,419.309 99.243,419.725 98.85,420.183 C98.458,420.634 98.261,421.176 98.261,421.808 Z M101.039,412.017 C102.211,412.017 103.139,412.29 103.825,412.835 C104.51,413.38 104.853,414.133 104.853,415.094 C104.853,415.726 104.657,416.304 104.264,416.825 C103.872,417.347 103.244,417.822 102.384,418.249 C103.427,418.747 104.168,419.271 104.607,419.823 C105.047,420.367 105.267,421 105.267,421.721 C105.267,422.787 104.894,423.64 104.15,424.279 C103.406,424.911 102.386,425.227 101.091,425.227 C99.721,425.227 98.666,424.929 97.928,424.331 C97.189,423.727 96.82,422.875 96.82,421.773 C96.82,420.303 97.716,419.157 99.51,418.337 C98.7,417.88 98.12,417.387 97.77,416.86 C97.419,416.332 97.235,415.71 97.242,415.076 C97.242,414.144 97.585,413.404 98.27,412.852 C98.962,412.296 99.885,412.017 101.039,412.017 Z M91.889,425.052 L90.465,425.052 L90.465,415.893 C90.465,415.132 90.489,414.411 90.535,413.731 C90.402,413.865 90.265,413.994 90.123,414.118 C89.97,414.253 89.273,414.824 88.031,415.832 L87.258,414.83 L90.658,412.202 L91.889,412.202 L91.889,425.052 Z M77.679,418.609 C77.679,420.478 77.899,421.841 78.338,422.697 C78.778,423.547 79.478,423.971 80.438,423.971 C81.411,423.971 82.114,423.541 82.548,422.679 C82.987,421.811 83.207,420.455 83.207,418.608 C83.207,416.764 82.987,415.413 82.547,414.558 C82.114,413.697 81.411,413.266 80.438,413.266 C79.478,413.266 78.778,413.69 78.338,414.54 C77.898,415.384 77.678,416.74 77.678,418.609 L77.679,418.609 Z M84.7,418.609 C84.7,420.83 84.35,422.488 83.646,423.584 C82.949,424.68 81.88,425.227 80.438,425.227 C79.055,425.227 78.004,424.668 77.283,423.549 C76.563,422.424 76.202,420.777 76.202,418.608 C76.202,416.371 76.551,414.71 77.248,413.626 C77.945,412.542 79.008,412 80.438,412 C81.833,412 82.89,412.565 83.611,413.697 C84.338,414.827 84.701,416.465 84.701,418.609 L84.7,418.609 Z M74.33,425.052 L65.883,425.052 L65.883,423.795 L69.267,420.393 C70.299,419.35 70.978,418.606 71.307,418.161 C71.609,417.762 71.857,417.324 72.045,416.86 C72.209,416.438 72.291,415.984 72.291,415.498 C72.291,414.812 72.083,414.27 71.667,413.872 C71.251,413.468 70.674,413.266 69.935,413.266 C69.417,413.264 68.902,413.352 68.415,413.53 C67.94,413.705 67.41,414.024 66.824,414.488 L66.05,413.494 C67.234,412.51 68.523,412.017 69.918,412.017 C71.125,412.017 72.071,412.328 72.757,412.949 C73.442,413.564 73.785,414.393 73.785,415.436 C73.785,416.251 73.556,417.057 73.099,417.853 C72.642,418.65 71.787,419.658 70.533,420.877 L67.72,423.628 L67.72,423.698 L74.33,423.698 L74.33,425.052 Z M59.353,425.052 L50.907,425.052 L50.907,423.795 L54.291,420.393 C55.322,419.35 56.001,418.606 56.33,418.161 C56.632,417.762 56.88,417.324 57.068,416.86 C57.232,416.438 57.314,415.984 57.314,415.498 C57.314,414.812 57.106,414.27 56.69,413.872 C56.274,413.468 55.697,413.266 54.959,413.266 C54.44,413.264 53.926,413.352 53.439,413.53 C52.964,413.705 52.433,414.024 51.847,414.488 L51.074,413.494 C52.258,412.51 53.547,412.017 54.941,412.017 C56.148,412.017 57.094,412.328 57.78,412.949 C58.466,413.564 58.808,414.393 58.808,415.436 C58.808,416.251 58.58,417.057 58.123,417.853 C57.666,418.65 56.81,419.658 55.556,420.877 L52.744,423.628 L52.744,423.698 L59.354,423.698 L59.354,425.052 L59.353,425.052 Z M43.955,425.227 C42.713,425.227 41.743,424.791 41.045,423.918 C40.348,423.045 40,421.826 40,420.262 C40,418.685 40.351,417.455 41.054,416.571 C41.758,415.685 42.736,415.243 43.99,415.243 C45.308,415.243 46.322,415.741 47.031,416.737 L47.111,416.737 L47.321,415.419 L48.472,415.419 L48.472,429.376 L47.013,429.376 L47.013,425.254 C47.013,424.668 47.046,424.17 47.11,423.76 L46.996,423.76 C46.322,424.739 45.308,425.227 43.955,425.227 Z M44.175,424.006 C45.147,424.006 45.856,423.746 46.302,423.224 C46.747,422.702 46.984,421.824 47.013,420.587 L47.013,420.262 C47.013,418.914 46.785,417.944 46.328,417.351 C45.871,416.761 45.148,416.465 44.157,416.465 C43.301,416.465 42.645,416.799 42.188,417.467 C41.738,418.129 41.511,419.066 41.511,420.28 C41.511,421.492 41.734,422.418 42.179,423.057 C42.631,423.689 43.296,424.007 44.175,424.007 L44.175,424.006 Z" id="Fill-24" fill="#333333"></path>
                <path d="M117.021,221.204 C116.289,221.204 115.715,221.38 115.298,221.732 C114.882,222.083 114.675,222.552 114.675,223.138 C114.675,223.677 114.847,224.14 115.193,224.527 C115.539,224.913 116.178,225.3 117.109,225.687 C117.947,225.335 118.539,224.957 118.885,224.553 C119.231,224.163 119.418,223.659 119.412,223.138 C119.412,222.546 119.198,222.078 118.77,221.732 C118.348,221.38 117.765,221.204 117.021,221.204 Z M114.261,229.808 C114.261,230.512 114.505,231.06 114.991,231.452 C115.483,231.845 116.171,232.042 117.056,232.042 C117.929,232.042 118.609,231.836 119.096,231.426 C119.582,231.016 119.825,230.453 119.825,229.739 C119.825,229.17 119.596,228.666 119.139,228.227 C118.682,227.781 117.886,227.351 116.749,226.935 C115.876,227.31 115.243,227.725 114.85,228.183 C114.458,228.634 114.261,229.176 114.261,229.809 L114.261,229.808 Z M117.039,220.018 C118.211,220.018 119.139,220.29 119.825,220.835 C120.51,221.38 120.853,222.133 120.853,223.094 C120.853,223.727 120.657,224.304 120.264,224.825 C119.872,225.347 119.244,225.822 118.384,226.249 C119.427,226.747 120.168,227.272 120.607,227.823 C121.047,228.367 121.267,229 121.267,229.721 C121.267,230.787 120.894,231.64 120.15,232.279 C119.406,232.911 118.386,233.228 117.091,233.228 C115.721,233.228 114.666,232.929 113.928,232.331 C113.189,231.728 112.82,230.875 112.82,229.774 C112.82,228.303 113.716,227.157 115.51,226.337 C114.7,225.88 114.12,225.387 113.77,224.861 C113.419,224.332 113.235,223.71 113.242,223.076 C113.242,222.145 113.585,221.404 114.27,220.853 C114.962,220.296 115.885,220.018 117.039,220.018 Z M107.889,233.052 L106.465,233.052 L106.465,223.894 C106.465,223.132 106.489,222.411 106.535,221.732 C106.402,221.865 106.265,221.994 106.123,222.118 C105.97,222.253 105.273,222.824 104.031,223.832 L103.258,222.83 L106.658,220.202 L107.889,220.202 L107.889,233.052 Z M93.679,226.61 C93.679,228.479 93.899,229.841 94.338,230.697 C94.778,231.547 95.478,231.971 96.438,231.971 C97.411,231.971 98.114,231.541 98.548,230.679 C98.987,229.812 99.207,228.455 99.207,226.609 C99.207,224.764 98.987,223.413 98.547,222.558 C98.114,221.697 97.411,221.266 96.438,221.266 C95.478,221.266 94.778,221.691 94.338,222.54 C93.898,223.384 93.678,224.74 93.678,226.61 L93.679,226.61 Z M100.7,226.61 C100.7,228.83 100.35,230.488 99.646,231.584 C98.949,232.68 97.88,233.228 96.438,233.228 C95.055,233.228 94.004,232.668 93.283,231.549 C92.563,230.424 92.202,228.778 92.202,226.609 C92.202,224.371 92.551,222.71 93.248,221.626 C93.945,220.542 95.008,220 96.438,220 C97.833,220 98.89,220.566 99.611,221.697 C100.338,222.827 100.701,224.465 100.701,226.61 L100.7,226.61 Z M90.33,233.052 L81.883,233.052 L81.883,231.795 L85.267,228.394 C86.299,227.351 86.978,226.607 87.307,226.161 C87.609,225.762 87.857,225.325 88.045,224.861 C88.209,224.439 88.291,223.985 88.291,223.498 C88.291,222.813 88.083,222.271 87.667,221.872 C87.251,221.468 86.674,221.266 85.935,221.266 C85.417,221.264 84.902,221.353 84.415,221.53 C83.94,221.705 83.41,222.025 82.824,222.488 L82.05,221.494 C83.234,220.51 84.523,220.018 85.918,220.018 C87.125,220.018 88.071,220.328 88.757,220.949 C89.442,221.565 89.785,222.394 89.785,223.437 C89.785,224.251 89.556,225.057 89.099,225.854 C88.642,226.651 87.787,227.658 86.533,228.877 L83.72,231.628 L83.72,231.698 L90.33,231.698 L90.33,233.052 Z M72.312,233.052 L70.889,233.052 L70.889,223.894 C70.889,223.132 70.913,222.411 70.959,221.732 C70.826,221.865 70.688,221.994 70.547,222.118 C70.394,222.253 69.697,222.824 68.455,223.832 L67.681,222.83 L71.083,220.202 L72.313,220.202 L72.313,233.052 L72.312,233.052 Z M59.955,233.228 C58.713,233.228 57.743,232.791 57.045,231.918 C56.348,231.045 56,229.826 56,228.262 C56,226.686 56.351,225.455 57.054,224.571 C57.758,223.686 58.736,223.243 59.99,223.243 C61.308,223.243 62.322,223.741 63.031,224.737 L63.111,224.737 L63.321,223.419 L64.472,223.419 L64.472,237.376 L63.013,237.376 L63.013,233.254 C63.013,232.668 63.046,232.17 63.11,231.76 L62.996,231.76 C62.322,232.739 61.308,233.228 59.955,233.228 Z M60.175,232.006 C61.147,232.006 61.856,231.746 62.302,231.224 C62.747,230.702 62.984,229.824 63.013,228.587 L63.013,228.262 C63.013,226.914 62.785,225.945 62.328,225.352 C61.871,224.761 61.148,224.465 60.157,224.465 C59.301,224.465 58.645,224.799 58.188,225.467 C57.738,226.129 57.511,227.067 57.511,228.28 C57.511,229.492 57.734,230.418 58.179,231.057 C58.631,231.69 59.296,232.007 60.175,232.007 L60.175,232.006 Z" id="Fill-30" fill="#333333"></path>
                <path d="M272.797,232.677 L278.123,221.172 L271.118,221.172 L271.118,219.827 L279.67,219.827 L279.67,220.997 L274.414,232.677 L272.797,232.677 Z M266.275,232.677 L264.851,232.677 L264.851,223.519 C264.851,222.757 264.875,222.036 264.921,221.357 C264.799,221.48 264.661,221.609 264.508,221.743 C264.356,221.878 263.657,222.449 262.417,223.457 L261.643,222.455 L265.045,219.827 L266.275,219.827 L266.275,232.677 Z M252.063,226.235 C252.063,228.104 252.282,229.466 252.723,230.322 C253.162,231.172 253.861,231.596 254.822,231.596 C255.796,231.596 256.499,231.166 256.933,230.304 C257.372,229.437 257.591,228.08 257.591,226.234 C257.591,224.389 257.371,223.038 256.932,222.183 C256.499,221.322 255.796,220.891 254.822,220.891 C253.861,220.891 253.162,221.316 252.723,222.165 C252.282,223.009 252.063,224.365 252.063,226.235 Z M259.085,226.235 C259.085,228.455 258.734,230.113 258.03,231.209 C257.334,232.305 256.264,232.853 254.822,232.853 C253.44,232.853 252.388,232.293 251.668,231.174 C250.946,230.049 250.587,228.403 250.587,226.234 C250.587,223.996 250.935,222.335 251.633,221.251 C252.33,220.167 253.393,219.625 254.822,219.625 C256.217,219.625 257.275,220.191 257.996,221.322 C258.722,222.452 259.086,224.09 259.086,226.235 L259.085,226.235 Z M248.715,232.677 L240.268,232.677 L240.268,231.42 L243.651,228.019 C244.683,226.976 245.362,226.232 245.692,225.786 C246.019,225.341 246.265,224.907 246.429,224.486 C246.594,224.064 246.676,223.61 246.676,223.123 C246.676,222.438 246.467,221.896 246.052,221.497 C245.636,221.093 245.058,220.891 244.319,220.891 C243.787,220.891 243.279,220.979 242.8,221.155 C242.324,221.33 241.795,221.65 241.209,222.113 L240.435,221.119 C241.619,220.135 242.907,219.643 244.302,219.643 C245.509,219.643 246.456,219.953 247.142,220.574 C247.827,221.19 248.17,222.019 248.17,223.062 C248.17,223.876 247.941,224.682 247.484,225.479 C247.026,226.276 246.172,227.283 244.918,228.502 L242.105,231.253 L242.105,231.323 L248.715,231.323 L248.715,232.677 Z M231.531,232.853 C230.137,232.853 229.056,232.425 228.289,231.57 C227.526,230.708 227.146,229.492 227.146,227.922 C227.146,226.311 227.532,225.066 228.306,224.187 C229.086,223.307 230.193,222.868 231.629,222.868 C232.091,222.868 232.554,222.918 233.017,223.018 C233.48,223.118 233.844,223.235 234.107,223.369 L233.658,224.609 C233.317,224.474 232.964,224.368 232.604,224.292 C232.274,224.211 231.935,224.166 231.594,224.16 C229.637,224.16 228.657,225.408 228.657,227.904 C228.657,229.088 228.895,229.996 229.37,230.629 C229.85,231.262 230.56,231.579 231.497,231.579 C232.3,231.579 233.123,231.405 233.967,231.059 L233.967,232.352 C233.321,232.686 232.51,232.852 231.531,232.852 L231.531,232.853 Z M221.249,224.09 C220.475,224.09 219.857,224.342 219.394,224.846 C218.937,225.35 218.668,226.047 218.586,226.938 L223.622,226.938 C223.622,226.018 223.417,225.315 223.007,224.828 C222.597,224.336 222.01,224.09 221.249,224.09 Z M221.645,232.853 C220.22,232.853 219.095,232.419 218.269,231.552 C217.448,230.685 217.039,229.481 217.039,227.94 C217.039,226.387 217.419,225.154 218.181,224.24 C218.948,223.325 219.977,222.868 221.266,222.868 C222.473,222.868 223.428,223.267 224.132,224.064 C224.835,224.854 225.186,225.901 225.186,227.201 L225.186,228.124 L218.551,228.124 C218.58,229.255 218.863,230.114 219.402,230.7 C219.947,231.285 220.713,231.578 221.696,231.578 C222.756,231.573 223.803,231.352 224.773,230.928 L224.773,232.228 C224.301,232.437 223.81,232.596 223.305,232.703 C222.848,232.803 222.295,232.853 221.645,232.853 Z M210.175,231.631 C211.171,231.631 211.891,231.361 212.337,230.822 C212.787,230.278 213.013,229.402 213.013,228.195 L213.013,227.887 C213.013,226.522 212.785,225.549 212.328,224.969 C211.877,224.383 211.152,224.09 210.156,224.09 C209.301,224.09 208.645,224.424 208.188,225.092 C207.737,225.754 207.511,226.692 207.511,227.905 C207.511,229.135 207.736,230.064 208.188,230.691 C208.639,231.318 209.302,231.631 210.175,231.631 Z M213.093,231.385 L213.013,231.385 C212.34,232.364 211.332,232.853 209.989,232.853 C208.73,232.853 207.749,232.423 207.046,231.561 C206.348,230.7 206,229.475 206,227.887 C206,226.299 206.351,225.066 207.054,224.187 C207.759,223.307 208.735,222.867 209.989,222.867 C211.297,222.867 212.299,223.342 212.996,224.291 L213.109,224.291 L213.049,223.597 L213.013,222.92 L213.013,219 L214.473,219 L214.473,232.677 L213.285,232.677 L213.092,231.385 L213.093,231.385 Z" id="Fill-32" fill="#333333"></path>
                <path d="M254.526,47.052 L259.852,35.547 L252.849,35.547 L252.849,34.202 L261.4,34.202 L261.4,35.372 L256.143,47.052 L254.526,47.052 Z M248.005,47.052 L246.581,47.052 L246.581,37.894 C246.581,37.132 246.604,36.411 246.651,35.732 C246.528,35.855 246.391,35.984 246.238,36.118 C246.087,36.253 245.388,36.824 244.146,37.832 L243.374,36.83 L246.774,34.202 L248.005,34.202 L248.005,47.052 Z M233.794,40.61 C233.794,42.479 234.013,43.841 234.452,44.697 C234.892,45.547 235.592,45.971 236.552,45.971 C237.525,45.971 238.228,45.541 238.662,44.679 C239.102,43.812 239.322,42.455 239.322,40.609 C239.322,38.764 239.102,37.413 238.662,36.558 C238.228,35.697 237.525,35.266 236.552,35.266 C235.592,35.266 234.892,35.691 234.452,36.54 C234.012,37.384 233.793,38.74 233.793,40.61 L233.794,40.61 Z M240.815,40.61 C240.815,42.83 240.464,44.488 239.761,45.584 C239.063,46.68 237.994,47.228 236.553,47.228 C235.171,47.228 234.118,46.668 233.397,45.549 C232.677,44.424 232.317,42.778 232.317,40.609 C232.317,38.371 232.666,36.71 233.362,35.626 C234.059,34.542 235.122,34 236.552,34 C237.947,34 239.005,34.566 239.725,35.697 C240.452,36.827 240.815,38.465 240.815,40.61 Z M230.444,47.052 L222,47.052 L222,45.795 L225.383,42.394 C226.413,41.351 227.093,40.607 227.422,40.161 C227.751,39.716 227.996,39.282 228.16,38.861 C228.324,38.439 228.406,37.985 228.406,37.498 C228.406,36.813 228.198,36.271 227.782,35.872 C227.366,35.468 226.789,35.266 226.051,35.266 C225.533,35.263 225.018,35.353 224.531,35.53 C224.056,35.705 223.525,36.025 222.939,36.488 L222.167,35.494 C223.349,34.51 224.639,34.018 226.033,34.018 C227.24,34.018 228.186,34.328 228.872,34.949 C229.558,35.565 229.9,36.394 229.9,37.437 C229.9,38.251 229.672,39.057 229.215,39.854 C228.758,40.651 227.902,41.658 226.648,42.877 L223.837,45.628 L223.837,45.698 L230.446,45.698 L230.446,47.052 L230.444,47.052 Z" id="Fill-38" fill="#333333"></path>
                <path d="M89.918,39.203 C91.271,39.203 92.335,39.54 93.108,40.214 C93.888,40.882 94.278,41.799 94.278,42.965 C94.278,44.295 93.852,45.338 93.003,46.094 C92.159,46.85 90.993,47.228 89.505,47.228 C88.058,47.228 86.953,46.996 86.191,46.533 L86.191,45.127 C86.601,45.391 87.111,45.599 87.721,45.751 C88.311,45.895 88.915,45.97 89.522,45.971 C90.554,45.971 91.353,45.728 91.922,45.241 C92.496,44.755 92.783,44.052 92.783,43.132 C92.783,41.339 91.685,40.442 89.487,40.442 C88.931,40.442 88.187,40.528 87.255,40.697 L86.499,40.214 L86.982,34.202 L93.372,34.202 L93.372,35.547 L88.23,35.547 L87.905,39.406 C88.568,39.272 89.242,39.204 89.918,39.203 Z M81.006,47.052 L79.582,47.052 L79.582,37.894 C79.582,37.132 79.605,36.411 79.652,35.732 C79.529,35.855 79.392,35.984 79.239,36.118 C79.087,36.253 78.389,36.824 77.147,37.832 L76.374,36.83 L79.775,34.202 L81.005,34.202 L81.005,47.052 L81.006,47.052 Z M66.794,40.61 C66.794,42.479 67.014,43.841 67.453,44.697 C67.893,45.547 68.593,45.971 69.553,45.971 C70.526,45.971 71.229,45.541 71.663,44.679 C72.103,43.812 72.323,42.455 72.323,40.609 C72.323,38.764 72.103,37.413 71.663,36.558 C71.229,35.697 70.526,35.266 69.553,35.266 C68.593,35.266 67.893,35.691 67.453,36.54 C67.013,37.384 66.793,38.74 66.793,40.61 L66.794,40.61 Z M73.816,40.61 C73.816,42.83 73.465,44.488 72.762,45.584 C72.064,46.68 70.995,47.228 69.554,47.228 C68.171,47.228 67.119,46.668 66.398,45.549 C65.678,44.424 65.318,42.778 65.318,40.609 C65.318,38.371 65.666,36.71 66.363,35.626 C67.06,34.542 68.123,34 69.553,34 C70.948,34 72.006,34.566 72.726,35.697 C73.453,36.827 73.816,38.465 73.816,40.61 Z M63.445,47.052 L55,47.052 L55,45.795 L58.384,42.394 C59.414,41.351 60.094,40.607 60.423,40.161 C60.751,39.716 60.997,39.282 61.161,38.861 C61.325,38.439 61.407,37.985 61.407,37.498 C61.407,36.813 61.199,36.271 60.783,35.872 C60.367,35.468 59.79,35.266 59.052,35.266 C58.534,35.264 58.019,35.353 57.532,35.53 C57.057,35.705 56.526,36.025 55.94,36.488 L55.167,35.494 C56.35,34.51 57.64,34.018 59.034,34.018 C60.241,34.018 61.187,34.328 61.873,34.949 C62.559,35.565 62.901,36.394 62.901,37.437 C62.901,38.251 62.673,39.057 62.216,39.854 C61.759,40.651 60.903,41.658 59.649,42.877 L56.837,45.628 L56.837,45.698 L63.447,45.698 L63.447,47.052 L63.445,47.052 Z" id="Fill-40" fill="#333333"></path>
                <path d="M254.104,199.019058 L260.563,205.173058 L259.183,206.621058 L252.724,200.468058 L254.104,199.019058 Z M260.596,193.665058 L254.138,200.435058 L252.691,199.055058 L259.15,192.283058 L260.596,193.665058 Z M260.563,205.173058 C260.963,205.554058 260.978,206.187058 260.597,206.587058 C260.216,206.987058 259.583,207.002058 259.183,206.621058 L260.563,205.173058 Z M253.414,199.744058 L252.723,200.468058 L252,199.778058 L252.689,199.053058 L253.414,199.743058 L253.414,199.744058 Z M259.15,192.285058 C259.544,191.899058 260.178,191.906058 260.564,192.300058 C260.932,192.676058 260.946,193.272058 260.596,193.665058 L259.15,192.285058 Z" id="Fill-42" fill="#00ADD9"></path>
                <path d="M112.105,198.018938 L118.564,204.172938 L117.184,205.620938 L110.725,199.467938 L112.105,198.018938 Z M118.597,192.664938 L112.139,199.434938 L110.692,198.054938 L117.151,191.282938 L118.597,192.664938 Z M118.564,204.172938 C118.964,204.553938 118.979,205.186938 118.598,205.586938 C118.217,205.986938 117.584,206.001938 117.184,205.620938 L118.564,204.172938 Z M111.414,198.743938 L110.724,199.467938 L110,198.777938 L110.69,198.052938 L111.414,198.742938 L111.414,198.743938 Z M117.151,191.284938 C117.546,190.898938 118.179,190.905938 118.565,191.300938 C118.933,191.675938 118.947,192.271938 118.597,192.664938 L117.151,191.284938 Z" id="Fill-44" fill="#00ADD9"></path>
                <path d="M253.105,571.019058 L259.564,577.173058 L258.183,578.621058 L251.724,572.468058 L253.105,571.019058 Z M259.596,565.665058 L253.138,572.435058 L251.692,571.055058 L258.151,564.283058 L259.596,565.665058 Z M259.564,577.173058 C259.963,577.554058 259.979,578.187058 259.597,578.587058 C259.216,578.987058 258.584,579.002058 258.183,578.621058 L259.564,577.173058 Z M252.414,571.744058 L251.723,572.468058 L251,571.778058 L251.69,571.053058 L252.414,571.743058 L252.414,571.744058 Z M258.151,564.285058 C258.545,563.899058 259.178,563.906058 259.565,564.300058 C259.932,564.676058 259.946,565.273058 259.596,565.665058 L258.151,564.285058 Z" id="Fill-46" fill="#C2C2C2"></path>
                <path d="M88.105,571.019058 L94.564,577.173058 L93.184,578.621058 L86.725,572.468058 L88.105,571.019058 Z M94.597,565.665058 L88.139,572.435058 L86.692,571.055058 L93.151,564.283058 L94.597,565.665058 Z M94.564,577.173058 C94.964,577.554058 94.979,578.187058 94.598,578.587058 C94.217,578.987058 93.584,579.002058 93.184,578.621058 L94.564,577.173058 Z M87.414,571.744058 L86.724,572.468058 L86,571.778058 L86.69,571.053058 L87.414,571.743058 L87.414,571.744058 Z M93.151,564.285058 C93.546,563.899058 94.179,563.906058 94.565,564.300058 C94.933,564.676058 94.947,565.273058 94.597,565.665058 L93.151,564.285058 Z" id="Fill-48" fill="#C2C2C2"></path>
                <path d="M229.768663,385.018808 L223.309663,391.172808 L224.690663,392.621808 L231.149663,386.467808 L229.768663,385.018808 Z M223.277663,379.664808 L229.735663,386.434808 L231.181663,385.054808 L224.722663,378.283808 L223.277663,379.664808 Z M223.309663,391.172808 C222.910663,391.553808 222.894663,392.187808 223.276663,392.586808 C223.657663,392.986808 224.289663,393.001808 224.690663,392.621808 L223.309663,391.172808 Z M230.459663,385.744808 L231.150663,386.467808 L231.873663,385.778808 L231.183663,385.052808 L230.459663,385.743808 L230.459663,385.744808 Z M224.722663,378.285808 C224.328663,377.898808 223.695663,377.905808 223.308663,378.300808 C222.941663,378.675808 222.927663,379.272808 223.277663,379.664808 L224.722663,378.285808 Z" id="Fill-50" fill="#C2C2C2"></path>
                <path d="M228.7688,13.0194385 L222.3098,19.1734385 L223.6898,20.6214385 L230.1488,14.4684385 L228.7688,13.0194385 Z M222.2768,7.6654385 L228.7348,14.4354385 L230.1818,13.0554385 L223.7228,6.2834385 L222.2768,7.6654385 Z M222.3098,19.1734385 C221.9108,19.5544385 221.8948,20.1874385 222.2758,20.5874385 C222.6578,20.9874385 223.2898,21.0024385 223.6898,20.6214385 L222.3098,19.1734385 Z M229.4598,13.7444385 L230.1498,14.4684385 L230.8738,13.7784385 L230.1838,13.0534385 L229.4598,13.7434385 L229.4598,13.7444385 Z M223.7228,6.2854385 C223.3288,5.8984385 222.6958,5.9064385 222.3088,6.3004385 C221.9418,6.6764385 221.9268,7.2724385 222.2768,7.6654385 L223.7228,6.2854385 Z" id="Fill-52" fill="#00ADD9"></path>
                <path d="M82.896,11.948 C82.896,16.338 79.337,19.896 74.948,19.896 C70.559,19.896 67,16.338 67,11.948 C67,7.558 70.559,4 74.948,4 C79.337,4 82.896,7.558 82.896,11.948" id="Fill-54" fill="#F7FAF8"></path>
                <g id="Group-58" transform="translate(64.000000, 0.000000)">
                    <mask id="mask-8" fill="white">
                        <use xlink:href="#path-7"></use>
                    </mask>
                    <g id="Clip-57"></g>
                    <path d="M11.1484,6.8154 C13.8804,6.8154 16.0954,9.0304 16.0964,11.7624 L22.0964,11.7624 C22.0964,5.7164 17.1944,0.8154 11.1484,0.8154 L11.1484,6.8154 Z M6.2004,11.7624 C6.2004,9.0304 8.4164,6.8154 11.1484,6.8154 L11.1484,0.8154 C5.1024,0.8154 0.2004,5.7164 0.2004,11.7624 L6.2004,11.7624 Z M11.1484,16.7104 C8.4154,16.7104 6.2004,14.4954 6.2004,11.7624 L0.2004,11.7624 C0.2004,17.8094 5.1024,22.7104 11.1484,22.7104 L11.1484,16.7104 Z M16.0964,11.7624 C16.0964,14.4954 13.8804,16.7104 11.1484,16.7104 L11.1484,22.7104 C17.1944,22.7104 22.0964,17.8094 22.0964,11.7624 L16.0964,11.7624 Z" id="Fill-56" fill="#00ADD9" mask="url(#mask-8)"></path>
                </g>
                <path d="M249.896,11.948 C249.896,16.338 246.337,19.896 241.948,19.896 C237.558,19.896 234,16.338 234,11.948 C234,7.558 237.558,4 241.948,4 C246.337,4 249.896,7.558 249.896,11.948" id="Fill-59" fill="#F7FAF8"></path>
                <g id="Group-63" transform="translate(230.000000, 0.000000)">
                    <mask id="mask-10" fill="white">
                        <use xlink:href="#path-9"></use>
                    </mask>
                    <g id="Clip-62"></g>
                    <path d="M11.6484,6.8154 C14.3804,6.8154 16.5954,9.0304 16.5964,11.7624 L22.5964,11.7624 C22.5964,5.7164 17.6944,0.8154 11.6484,0.8154 L11.6484,6.8154 Z M6.7004,11.7624 C6.7014,9.0304 8.9164,6.8154 11.6484,6.8154 L11.6484,0.8154 C5.6024,0.8154 0.7004,5.7164 0.7004,11.7624 L6.7004,11.7624 Z M11.6484,16.7104 C8.9154,16.7104 6.7004,14.4954 6.7004,11.7624 L0.7004,11.7624 C0.7004,17.8094 5.6024,22.7104 11.6484,22.7104 L11.6484,16.7104 Z M16.5964,11.7624 C16.5964,14.4954 14.3804,16.7104 11.6484,16.7104 L11.6484,22.7104 C17.6944,22.7104 22.5964,17.8094 22.5964,11.7624 L16.5964,11.7624 Z" id="Fill-61" fill="#00ADD9" mask="url(#mask-10)"></path>
                </g>
                <path d="M248.896,198.948 C248.896,203.338 245.337,206.896 240.948,206.896 C236.558,206.896 233,203.338 233,198.948 C233,194.558 236.558,191 240.948,191 C245.337,191 248.896,194.558 248.896,198.948" id="Fill-64" fill="#F7FAF8"></path>
                <path d="M240.948,194 C243.68,194 245.895,196.215 245.896,198.947 L251.896,198.947 C251.896,192.901 246.994,188 240.948,188 L240.948,194 Z M236,198.947 C236.001,196.215 238.216,194 240.948,194 L240.948,188 C234.902,188 230,192.901 230,198.947 L236,198.947 Z M240.948,203.895 C238.215,203.895 236,201.68 236,198.947 L230,198.947 C230,204.994 234.902,209.895 240.948,209.895 L240.948,203.895 Z M245.896,198.947 C245.896,201.68 243.68,203.895 240.948,203.895 L240.948,209.895 C246.994,209.895 251.896,204.994 251.896,198.947 L245.896,198.947 Z" id="Fill-66" fill="#00ADD9"></path>
                <path d="M82.896,383.947 C82.896,388.337 79.337,391.895 74.948,391.895 C70.559,391.895 67,388.337 67,383.947 C67,379.558 70.559,376 74.948,376 C79.337,376 82.896,379.558 82.896,383.947" id="Fill-68" fill="#F7FAF8"></path>
                <path d="M74.948,379 C77.68,379 79.895,381.215 79.896,383.946 L85.896,383.946 C85.896,377.9 80.994,373 74.948,373 L74.948,379 Z M70,383.946 C70,381.215 72.216,379 74.948,379 L74.948,373 C68.902,373 64,377.9 64,383.946 L70,383.946 Z M74.948,388.895 C72.215,388.895 70,386.68 70,383.946 L64,383.946 C64,389.994 68.902,394.895 74.948,394.895 L74.948,388.895 Z M79.896,383.946 C79.896,386.68 77.68,388.895 74.948,388.895 L74.948,394.895 C80.994,394.895 85.896,389.994 85.896,383.946 L79.896,383.946 Z" id="Fill-70" fill="#C2C2C2"></path>
                <path d="M249.896,386.948 C249.896,391.338 246.337,394.896 241.948,394.896 C237.558,394.896 234,391.338 234,386.948 C234,382.558 237.558,379 241.948,379 C246.337,379 249.896,382.558 249.896,386.948" id="Fill-72" fill="#F7FAF8"></path>
                <path d="M241.948,382 C244.68,382 246.895,384.215 246.896,386.947 L252.896,386.947 C252.896,380.901 247.994,376 241.948,376 L241.948,382 Z M237,386.947 C237.001,384.215 239.216,382 241.948,382 L241.948,376 C235.902,376 231,380.901 231,386.947 L237,386.947 Z M241.948,391.896 C239.215,391.896 237,389.68 237,386.947 L231,386.947 C231,392.994 235.902,397.896 241.948,397.896 L241.948,391.896 Z M246.896,386.947 C246.896,389.68 244.68,391.896 241.948,391.896 L241.948,397.896 C247.994,397.896 252.896,392.994 252.896,386.947 L246.896,386.947 Z" id="Fill-74" fill="#B8B8B8"></path>
                <path d="M82.896,570.947 C82.896,575.337 79.337,578.895 74.948,578.895 C70.559,578.895 67,575.337 67,570.947 C67,566.558 70.559,563 74.948,563 C79.337,563 82.896,566.558 82.896,570.947" id="Fill-76" fill="#F7FAF8"></path>
                <path d="M74.948,566 C77.68,566 79.895,568.215 79.896,570.946 L85.896,570.946 C85.896,564.9 80.994,560 74.948,560 L74.948,566 Z M70,570.946 C70,568.215 72.216,566 74.948,566 L74.948,560 C68.902,560 64,564.9 64,570.946 L70,570.946 Z M74.948,575.895 C72.215,575.895 70,573.68 70,570.946 L64,570.946 C64,576.994 68.902,581.895 74.948,581.895 L74.948,575.895 Z M79.896,570.946 C79.896,573.68 77.68,575.895 74.948,575.895 L74.948,581.895 C80.994,581.895 85.896,576.994 85.896,570.946 L79.896,570.946 Z" id="Fill-78" fill="#B8B8B8"></path>
                <path d="M248.896,570.947 C248.896,575.337 245.337,578.895 240.948,578.895 C236.558,578.895 233,575.337 233,570.947 C233,566.558 236.558,563 240.948,563 C245.337,563 248.896,566.558 248.896,570.947" id="Fill-80" fill="#F7FAF8"></path>
                <path d="M240.948,566 C243.68,566 245.895,568.215 245.896,570.946 L251.896,570.946 C251.896,564.9 246.994,560 240.948,560 L240.948,566 Z M236,570.946 C236.001,568.215 238.216,566 240.948,566 L240.948,560 C234.902,560 230,564.9 230,570.946 L236,570.946 Z M240.948,575.895 C238.215,575.895 236,573.68 236,570.946 L230,570.946 C230,576.994 234.902,581.895 240.948,581.895 L240.948,575.895 Z M245.896,570.946 C245.896,573.68 243.68,575.895 240.948,575.895 L240.948,581.895 C246.994,581.895 251.896,576.994 251.896,570.946 L245.896,570.946 Z" id="Fill-82" fill="#B8B8B8"></path>
                <path d="M79.084,195.062 C79.662,196.507 86.309,206.261 89.561,210.957 C92.812,206.261 101.844,192.533 101.844,189.644 C101.844,186.754 100.037,177 90.644,177 C81.251,177 78,186.031 78,188.56 C78,191.089 78.361,193.256 79.084,195.062" id="Fill-84" fill="#FFFFFF"></path>
                <path d="M89.484,192.758 C87.718,192.758 86.281,191.308 86.281,189.526 C86.281,187.743 87.718,186.293 89.484,186.293 C91.25,186.293 92.687,187.743 92.687,189.526 C92.687,191.308 91.25,192.758 89.484,192.758 M89.484,185 C87.012,185 85,187.03 85,189.526 C85,192.02 87.012,194.05 89.484,194.05 C91.956,194.05 93.968,192.02 93.968,189.525 C93.968,187.03 91.956,185 89.484,185" id="Fill-86" fill="#00ADD9"></path>
                <path d="M98.0718859,197.322028 L89.2838859,210.130028 L80.4818859,197.301028 C77.1518859,192.819028 77.6298859,185.457028 81.5048859,181.546028 C83.5558859,179.460028 86.3598859,178.287028 89.2848859,178.293028 C92.2228859,178.293028 94.9858859,179.448028 97.0648859,181.546028 C100.939886,185.456028 101.416886,192.819028 98.0718859,197.321028 L98.0718859,197.322028 Z M97.9698859,180.632028 C95.6808859,178.302028 92.5498859,176.993028 89.2838859,177.000028 C86.0028859,177.000028 82.9178859,178.290028 80.5978859,180.632028 C76.3048859,184.965028 75.7708859,193.117028 79.4428859,198.057028 L89.2838859,212.402028 L99.1108859,198.077028 C102.797886,193.117028 102.263886,184.965028 97.9708859,180.632028 L97.9698859,180.632028 Z" id="Fill-88" fill="#00ADD9"></path>
                <path d="M93.67,189.335 C93.67,191.729 91.73,193.67 89.335,193.67 C86.941,193.67 85,191.729 85,189.335 C85,186.941 86.941,185 89.335,185 C91.73,185 93.67,186.941 93.67,189.335" id="Fill-90" fill="#00ADD9"></path>
            </g>
        </g>
    </g>
</svg>