<svg width="31" height="30" xmlns="http://www.w3.org/2000/svg" xmlns:xlink="http://www.w3.org/1999/xlink"><use xlink:href="#path0_fill" fill="#FFF"/><defs><path id="path0_fill" d="M20.375 29.833c-.148.054-.297.12-.449.146-.582.106-.955-.199-.959-.803a146.54 146.54 0 0 1 .01-3.36c.02-1.29-.01-2.562-.978-3.626.575-.105 1.088-.178 1.589-.294 3.318-.773 5.042-2.895 5.262-6.416.113-1.793-.203-3.437-1.378-4.849-.085-.1-.09-.325-.05-.47.313-1.167.222-2.307-.142-3.448-.09-.285-.24-.373-.517-.354-.975.055-1.868.401-2.655.934-.759.517-1.465.63-2.366.42-1.985-.454-3.983-.321-5.964.144-.224.054-.526-.018-.731-.14-.93-.553-1.86-1.09-2.932-1.303-.83-.164-.902-.122-1.122.69-.276 1.025-.304 2.05-.021 3.08.04.15-.002.39-.1.501-2.198 2.485-1.402 7.18.078 8.98 1.152 1.396 2.681 2.025 4.38 2.352.296.056.59.098.887.15-.254.671-.483 1.304-.742 1.927-.05.12-.21.221-.342.272-1.666.655-3.097.173-4.05-1.359-.51-.817-1.164-1.428-2.138-1.604-.031-.006-.063-.023-.091-.019-.263.07-.522.143-.783.215.147.207.25.486.447.61.826.53 1.363 1.285 1.718 2.176.558 1.397 1.64 2.02 3.047 2.142.687.056 1.38.008 2.132.008 0 .868.031 1.858-.012 2.844-.023.532-.55.744-1.18.526-1.673-.58-3.225-1.412-4.564-2.58C.822 23.1-1.043 17.762.565 11.512 2.167 5.283 6.345 1.462 12.59.262c8.642-1.656 16.83 4.723 17.687 13.615.677 7.01-3.394 13.57-9.902 15.956zm-8.148-7.699l-.013.033.047.008c.012.001.022.023-.034-.04zm-3.91 2.771c.135.084.264.192.41.238.054.017.153-.106.327-.236-.242-.093-.385-.175-.535-.196-.059-.007-.134.126-.201.194zm1.232.214c.02.092.2.206.305.204.102-.002.202-.14.304-.218l-.47-.43c-.063.181-.165.328-.14.444zm1.51-.368c-.127.03-.234.15-.35.232.068.087.136.168.245.304.15-.139.253-.236.356-.33-.086-.076-.187-.222-.25-.206zm-3.744-.517c.07.135.18.252.327.443.099-.164.206-.29.187-.315a1.67 1.67 0 0 0-.346-.32c-.008-.006-.183.163-.168.192z"/></defs></svg>