<svg width="27" height="27" xmlns="http://www.w3.org/2000/svg" xmlns:xlink="http://www.w3.org/1999/xlink"><g filter="url(#filter0_d)" transform="translate(-14114 478)"><use xlink:href="#path0_fill" transform="translate(14118 -478)" fill="#F0F0F0"/><use xlink:href="#path1_fill" transform="translate(14118 -471.804)" fill="#0052B4"/><use xlink:href="#path2_fill" transform="translate(14118.6 -465.196)" fill="#D80027"/></g><defs><filter id="filter0_d" filterUnits="userSpaceOnUse" x="14114" y="-478" width="27" height="27" color-interpolation-filters="sRGB"><feFlood flood-opacity="0" result="BackgroundImageFix"/><feColorMatrix in="SourceAlpha" values="0 0 0 0 0 0 0 0 0 0 0 0 0 0 0 0 0 0 255 0"/><feOffset dy="4"/><feGaussianBlur stdDeviation="2"/><feColorMatrix values="0 0 0 0 0 0 0 0 0 0 0 0 0 0 0 0 0 0 0.25 0"/><feBlend in2="BackgroundImageFix" result="effect1_dropShadow"/><feBlend in="SourceGraphic" in2="effect1_dropShadow" result="shape"/></filter><path id="path0_fill" d="M9.317 19c5.146 0 9.317-4.253 9.317-9.5S14.463 0 9.317 0 0 4.253 0 9.5 4.171 19 9.317 19z"/><path id="path1_fill" d="M18.055 6.609c.374-1.03.58-2.143.58-3.305A9.646 9.646 0 0 0 18.054 0H.58A9.646 9.646 0 0 0 0 3.304C0 4.466.205 5.58.58 6.61l8.737.826 8.738-.826z"/><path id="path2_fill" d="M8.738 6.196c4.006 0 7.42-2.578 8.737-6.196H0c1.316 3.618 4.732 6.196 8.738 6.196z"/></defs></svg>