<svg width="16" height="13" xmlns="http://www.w3.org/2000/svg" xmlns:xlink="http://www.w3.org/1999/xlink"><use xlink:href="#path0_fill" transform="translate(.3)" fill="#D1D1D1"/><defs><path id="path0_fill" d="M15.654 1.49a6.458 6.458 0 0 1-1.844.502 3.2 3.2 0 0 0 1.412-1.76 6.51 6.51 0 0 1-2.041.773A3.216 3.216 0 0 0 10.837 0C9.064 0 7.626 1.425 7.626 3.181c0 .25.028.493.083.725A9.145 9.145 0 0 1 1.091.582 3.136 3.136 0 0 0 .656 2.18c0 1.104.568 2.078 1.428 2.648a3.234 3.234 0 0 1-1.454-.4v.04a3.191 3.191 0 0 0 2.575 3.12 3.28 3.28 0 0 1-.846.112 3.11 3.11 0 0 1-.604-.059 3.21 3.21 0 0 0 2.999 2.21 6.48 6.48 0 0 1-3.988 1.36c-.26 0-.515-.016-.766-.044A9.137 9.137 0 0 0 4.922 12.6c5.907 0 9.136-4.848 9.136-9.053l-.01-.412a6.38 6.38 0 0 0 1.606-1.644z"/></defs></svg>