<svg width="27" height="27" xmlns="http://www.w3.org/2000/svg" xmlns:xlink="http://www.w3.org/1999/xlink"><g opacity=".3" filter="url(#filter0_d)" transform="translate(-14146 478)"><use xlink:href="#path0_fill" transform="translate(14150.3 -473.883)" fill="#29337A"/><use xlink:href="#path1_fill" transform="translate(14153.8 -477.62)" fill="#29337A"/><use xlink:href="#path2_fill" transform="translate(14154 -463.49)" fill="#29337A"/><use xlink:href="#path3_fill" transform="translate(14150.4 -465.695)" fill="#29337A"/><use xlink:href="#path4_fill" transform="translate(14150.1 -474.103)" fill="#FFF"/><use xlink:href="#path5_fill" transform="translate(14153.8 -464.681)" fill="#FFF"/><use xlink:href="#path6_fill" transform="translate(14150.2 -466.509)" fill="#FFF"/><use xlink:href="#path7_fill" transform="translate(14152.6 -477.819)" fill="#FFF"/><use xlink:href="#path8_fill" transform="translate(14156.7 -465.724)" fill="#D32030"/><use xlink:href="#path9_fill" transform="translate(14157.5 -466.537)" fill="#D32030"/><use xlink:href="#path10_fill" transform="translate(14161 -470.109)" fill="#D32030"/><use xlink:href="#path11_fill" transform="translate(14156.7 -470.95)" fill="#D32030"/><use xlink:href="#path12_fill" transform="translate(14157.5 -470.137)" fill="#D32030"/><g fill="#252F6C"><use xlink:href="#path13_fill" transform="translate(14161.8 -462.981)"/><use xlink:href="#path14_fill" transform="translate(14161.8 -477.646)"/><use xlink:href="#path15_fill" transform="translate(14164 -465.695)"/><use xlink:href="#path16_fill" transform="translate(14164 -473.938)"/></g><g fill="#E7E7E7"><use xlink:href="#path17_fill" transform="translate(14162.9 -466.508)"/><use xlink:href="#path18_fill" transform="translate(14162.2 -476.168)"/><use xlink:href="#path19_fill" transform="translate(14161 -477.836)"/><use xlink:href="#path20_fill" transform="translate(14162.7 -475.129)"/><use xlink:href="#path21_fill" transform="translate(14162.2 -464.82)"/><use xlink:href="#path22_fill" transform="translate(14161 -461.484)"/></g><use xlink:href="#path23_fill" transform="translate(14162.4 -476.005)" fill="#D71F28"/><g fill="#D32030"><use xlink:href="#path24_fill" transform="translate(14158.9 -478)"/><use xlink:href="#path25_fill" transform="translate(14158.9 -459.012)"/><use xlink:href="#path26_fill" transform="translate(14159.3 -460.259)"/></g><g fill="#D71F28"><use xlink:href="#path27_fill" transform="translate(14162.9 -470.109)"/><use xlink:href="#path28_fill" transform="translate(14162.6 -466.348)"/></g><use xlink:href="#path29_fill" transform="translate(14159.3 -478)" fill="#D32030"/><g fill="#29337A"><use xlink:href="#path30_fill" transform="translate(14161.8 -463.49)"/><use xlink:href="#path31_fill" transform="translate(14161.8 -475.927)"/></g><g fill="#FFF"><use xlink:href="#path32_fill" transform="translate(14162.7 -466.509)"/><use xlink:href="#path33_fill" transform="translate(14161 -477.148)"/><use xlink:href="#path34_fill" transform="translate(14161.1 -472.013)"/><use xlink:href="#path35_fill" transform="translate(14161 -466.38)"/></g><use xlink:href="#path36_fill" transform="translate(14150 -478)" fill="#E51D35"/></g><defs><filter id="filter0_d" filterUnits="userSpaceOnUse" x="14146" y="-478" width="27" height="27" color-interpolation-filters="sRGB"><feFlood flood-opacity="0" result="BackgroundImageFix"/><feColorMatrix in="SourceAlpha" values="0 0 0 0 0 0 0 0 0 0 0 0 0 0 0 0 0 0 255 0"/><feOffset dy="4"/><feGaussianBlur stdDeviation="2"/><feColorMatrix values="0 0 0 0 0 0 0 0 0 0 0 0 0 0 0 0 0 0 0.25 0"/><feBlend in2="BackgroundImageFix" result="effect1_dropShadow"/><feBlend in="SourceGraphic" in2="effect1_dropShadow" result="shape"/></filter><path id="path0_fill" d="M1.334 0A9.547 9.547 0 0 0 0 2.96h4.238L1.334 0z"/><path id="path1_fill" d="M2.943 0A9.214 9.214 0 0 0 0 1.49l2.943 3.002V0z"/><path id="path2_fill" d="M0 2.777A9.194 9.194 0 0 0 2.724 4.11V0L0 2.777z"/><path id="path3_fill" d="M0 0a9.537 9.537 0 0 0 1.383 2.801L4.131 0H0z"/><path id="path4_fill" d="M1.659 0a9.673 9.673 0 0 0-.154.22L4.41 3.182H.171A9.667 9.667 0 0 0 0 3.995h5.577L1.66 0z"/><path id="path5_fill" d="M0 3.812c.07.053.144.105.216.156L2.94 1.191V5.3c.262.077.528.145.798.199V0L0 3.812z"/><path id="path6_fill" d="M0 0c.058.276.126.547.207.814h4.13l-2.747 2.8c.3.417.63.808.99 1.169L7.271 0H0z"/><path id="path7_fill" d="M4.08.2v4.49l-2.944-3C.731 1.998.351 2.34 0 2.709l4.877 4.974V0c-.27.054-.536.122-.797.2z"/><path id="path8_fill" d="M.029 0L0 .029h.029V0z"/><path id="path9_fill" d="M0 .029h.029V0L0 .029z"/><path id="path10_fill" d="M.028 0H0v.028L.028 0z"/><path id="path11_fill" d="M.028.028L0 0v.028h.028z"/><path id="path12_fill" d="M0 0v.028h.028L0 0z"/><path id="path13_fill" d="M0 1.497v2.13a9.184 9.184 0 0 0 2.762-1.32L.5 0C.319.648.252.983 0 1.497z"/><path id="path14_fill" d="M.51 3.997l2.471-2.519A9.209 9.209 0 0 0 0 0v2.188c.29.593.315 1.044.51 1.81z"/><path id="path15_fill" d="M2.801 2.856A9.544 9.544 0 0 0 4.223 0H0l2.801 2.856z"/><path id="path16_fill" d="M4.331 3.016A9.542 9.542 0 0 0 2.958 0L0 3.016h4.331z"/><path id="path17_fill" d="M0 .16l.64.654 3.065 3.124c.07-.088.139-.177.205-.268L1.11.814h4.223c.08-.267.149-.538.207-.814H.059C.052.115.012.046 0 .16z"/><path id="path18_fill" d="M.003 2.995L2.78.163C2.71.108 2.641.053 2.57 0L.1 2.519c.025.1-.121.374-.097.476z"/><path id="path19_fill" d="M.798 2.202V.19A9.148 9.148 0 0 0 0 0v.982c.297.328.563.74.798 1.22z"/><path id="path20_fill" d="M.17 5.02h5.673a9.634 9.634 0 0 0-.17-.813H1.34l2.958-3.016A9.51 9.51 0 0 0 3.332 0L0 3.397c.09.616.13.974.17 1.624z"/><path id="path21_fill" d="M0 1.701l2.398 2.445c.399-.28.774-.592 1.125-.93L.369 0C.268.595.149 1.17 0 1.701z"/><path id="path22_fill" d="M0 1.225v1.094c.27-.051.536-.115.798-.19V0C.563.48.297.897 0 1.225z"/><path id="path23_fill" d="M.248 4.273L3.58.876A9.379 9.379 0 0 0 2.618 0L0 2.67c.116.496.17 1.063.248 1.603z"/><path id="path26_fill" d="M0 1.259c.588 0 1.162-.058 1.72-.165V0C1.23.54.656 1.259 0 1.259z"/><path id="path27_fill" d="M5.626 0h-5.6A26.027 26.027 0 0 1 0 3.6h5.555a9.71 9.71 0 0 0 .07-3.6z"/><path id="path28_fill" d="M.322 0C.27.561.09.999 0 1.528l3.154 3.216c.312-.301.604-.624.873-.966L.962.653.322 0z"/><path id="path29_fill" d="M1.72 1.216V.164A9.187 9.187 0 0 0 0 0c.657 0 1.23.676 1.72 1.216z"/><path id="path30_fill" d="M0 2.417C.252 1.902.468 1.31.65.662L0 0v2.417z"/><path id="path31_fill" d="M.73 2.055A10.822 10.822 0 0 0 0 0v2.799l.73-.744z"/><path id="path32_fill" d="M.339.345L.368 0H0l.339.345z"/><path id="path33_fill" d="M.798 4.02v-2.8A5.263 5.263 0 0 0 0 0v5.21l1.603-1.633-.075-.302-.73.744z"/><path id="path34_fill" d="M0 1.905h2.063C2.023 1.255 1.958.616 1.868 0L0 1.905z"/><path id="path35_fill" d="M0 6.528c.297-.328.563-.74.798-1.22V2.89l.649.661c.149-.532.274-1.1.375-1.695L0 0v6.528z"/><path id="path36_fill" d="M11.037 18.148V11.62l1.821 1.857c.09-.53.16-1.079.212-1.64l-.339-.346h.368c.092-1.183.1-2.408.027-3.6h-2.063l1.868-1.904a18.61 18.61 0 0 0-.292-1.558l-1.602 1.634V.853C10.546.31 9.973 0 9.316 0a9.207 9.207 0 0 0-1.811.18v7.683L2.628 2.89c-.3.316-.578.652-.833 1.007l3.12 3.181.798.814H.136a9.73 9.73 0 0 0 .07 3.6h7.272l-4.69 4.782c.306.308.633.594.98.857l3.738-3.812v5.5a9.213 9.213 0 0 0 1.81.181c.659 0 1.231-.311 1.72-.852z"/></defs></svg>