<svg width="27" height="26" xmlns="http://www.w3.org/2000/svg"><g fill="none"><path d="M26.846 13c0 7.18-5.898 13-13.173 13S.5 20.18.5 13 6.398 0 13.673 0s13.173 5.82 13.173 13z" fill="#FFF"/><path d="M18.971 11.854c.23-1.53-.936-2.353-2.529-2.902l.517-2.072-1.261-.314-.503 2.017c-.332-.082-.673-.16-1.011-.237l.506-2.032L13.43 6l-.517 2.072a42.203 42.203 0 0 1-.806-.19l.001-.006-1.74-.434-.335 1.347s.936.214.916.228c.511.127.604.465.588.734l-.588 2.36c.035.01.08.022.13.043l-.133-.033-.825 3.307c-.062.155-.22.388-.578.3.013.018-.917-.23-.917-.23L8 16.944l1.642.41c.305.076.604.156.9.231l-.523 2.096 1.26.315.517-2.074c.344.093.679.18 1.005.26l-.515 2.065 1.262.314.522-2.092c2.151.407 3.769.243 4.45-1.703.548-1.566-.028-2.47-1.16-3.06.825-.19 1.446-.731 1.611-1.851zm-2.882 4.041c-.39 1.567-3.028.72-3.883.508l.693-2.777c.855.213 3.597.636 3.19 2.27zm.39-4.064c-.356 1.425-2.551.7-3.263.523l.628-2.518c.712.177 3.006.508 2.635 1.995z" fill="#313E48"/></g></svg>