<svg width="26" height="25" xmlns="http://www.w3.org/2000/svg" xmlns:xlink="http://www.w3.org/1999/xlink"><use xlink:href="#path0_fill" fill="#FFF"/><defs><path id="path0_fill" d="M17.352 24.737c-.126.045-.253.1-.382.122-.496.087-.814-.166-.817-.666-.007-.93-.007-1.858.009-2.788.016-1.068-.009-2.123-.834-3.005.49-.087.927-.148 1.353-.244 2.827-.641 4.295-2.4 4.482-5.32.096-1.487-.173-2.85-1.174-4.021-.072-.082-.076-.27-.041-.39.266-.967.188-1.912-.122-2.859-.077-.236-.204-.309-.44-.293-.83.045-1.59.332-2.261.774-.646.429-1.248.522-2.016.349-1.69-.377-3.392-.267-5.079.119-.19.045-.447-.015-.622-.117-.792-.457-1.584-.902-2.497-1.08-.706-.136-.768-.101-.955.573-.236.85-.26 1.7-.019 2.554.035.124-.001.323-.085.415-1.871 2.06-1.194 5.954.067 7.445.98 1.159 2.283 1.68 3.73 1.95.252.047.503.082.756.126-.217.556-.412 1.081-.632 1.597-.043.1-.18.184-.292.226-1.418.543-2.638.143-3.45-1.127-.433-.677-.99-1.184-1.82-1.33-.026-.005-.053-.019-.078-.015-.223.057-.444.118-.666.177.125.172.213.403.381.507.703.439 1.16 1.065 1.463 1.804.475 1.158 1.397 1.675 2.595 1.776.585.047 1.175.007 1.816.007 0 .72.026 1.54-.011 2.358-.02.44-.468.617-1.005.436-1.425-.48-2.746-1.17-3.887-2.14C.7 19.155-.888 14.727.481 9.546 1.846 4.38 5.403 1.212 10.722.218c7.36-1.374 14.332 3.916 15.063 11.289.576 5.812-2.89 11.251-8.433 13.23zm-6.939-6.384l-.011.028.04.006c.01.001.019.02-.029-.034zm-3.33 2.298c.115.07.225.159.35.197.045.014.13-.087.278-.196-.207-.077-.328-.145-.456-.162-.05-.006-.114.105-.172.16zm1.05.177c.016.076.169.17.259.17.087-.002.172-.116.259-.181-.079-.072-.158-.14-.401-.357-.053.15-.14.272-.118.368zm1.286-.305c-.109.025-.2.124-.299.192.058.072.116.14.209.253.128-.116.215-.196.303-.274-.073-.063-.16-.184-.213-.171zm-3.19-.428c.06.112.153.208.28.367.083-.136.175-.24.159-.261a1.407 1.407 0 0 0-.295-.265c-.007-.006-.156.134-.144.159z"/></defs></svg>