<svg width="27" height="26" xmlns="http://www.w3.org/2000/svg" xmlns:xlink="http://www.w3.org/1999/xlink"><use xlink:href="#path0_fill" transform="translate(.1)" fill="#FFF"/><use xlink:href="#path1_fill" transform="translate(4.5 7.22)" fill="#313E48"/><defs><path id="path0_fill" d="M26.346 13c0 7.18-5.898 13-13.173 13S0 20.18 0 13 5.898 0 13.173 0s13.173 5.82 13.173 13z"/><path id="path1_fill" d="M.259 5.887L3.63 7.1l1.305 4.045a.403.403 0 0 0 .631.182l1.88-1.476a.578.578 0 0 1 .684-.018l3.39 2.371c.234.164.564.04.623-.231L14.628.462c.064-.297-.239-.545-.532-.436L.255 5.171a.378.378 0 0 0 .004.716zm4.467.567l6.591-3.91c.119-.07.24.083.139.174L6.016 7.59a1.074 1.074 0 0 0-.35.65l-.185 1.323c-.024.177-.282.194-.332.023l-.713-2.412a.629.629 0 0 1 .29-.72z"/></defs></svg>