<svg width="27" height="26" xmlns="http://www.w3.org/2000/svg" xmlns:xlink="http://www.w3.org/1999/xlink"><use xlink:href="#path0_fill" transform="translate(.5)" fill="#FFF"/><use xlink:href="#path1_fill" transform="translate(7.1 7.94)" fill="#313E48"/><defs><path id="path0_fill" d="M26.346 13c0 7.18-5.898 13-13.173 13S0 20.18 0 13 5.898 0 13.173 0s13.173 5.82 13.173 13z"/><path id="path1_fill" d="M13.173 1.282a5.344 5.344 0 0 1-1.552.43A2.742 2.742 0 0 0 12.81.2a5.407 5.407 0 0 1-1.717.664A2.68 2.68 0 0 0 9.12 0C7.627 0 6.417 1.225 6.417 2.735c0 .214.024.424.07.624A7.641 7.641 0 0 1 .917.5a2.741 2.741 0 0 0-.365 1.375c0 .95.478 1.787 1.202 2.277A2.677 2.677 0 0 1 .53 3.809v.034a2.73 2.73 0 0 0 2.167 2.682 2.706 2.706 0 0 1-.712.096c-.174 0-.343-.017-.508-.05A2.708 2.708 0 0 0 4 8.47a5.38 5.38 0 0 1-4 1.132 7.57 7.57 0 0 0 4.142 1.231c4.971 0 7.688-4.168 7.688-7.784l-.009-.354c.531-.383.99-.865 1.352-1.413z"/></defs></svg>