<svg width="34" height="33" xmlns="http://www.w3.org/2000/svg" xmlns:xlink="http://www.w3.org/1999/xlink"><g filter="url(#filter0_d)" transform="translate(-17473 517)"><use xlink:href="#path0_fill" transform="translate(17477.4 -511.583)" fill="#29337A"/><use xlink:href="#path1_fill" transform="translate(17482.2 -516.5)" fill="#29337A"/><use xlink:href="#path2_fill" transform="translate(17482.5 -497.908)" fill="#29337A"/><use xlink:href="#path3_fill" transform="translate(17477.6 -500.809)" fill="#29337A"/><use xlink:href="#path4_fill" transform="translate(17477.2 -511.873)" fill="#FFF"/><use xlink:href="#path5_fill" transform="translate(17482.2 -499.475)" fill="#FFF"/><use xlink:href="#path6_fill" transform="translate(17477.3 -501.88)" fill="#FFF"/><use xlink:href="#path7_fill" transform="translate(17480.6 -516.762)" fill="#FFF"/><use xlink:href="#path8_fill" transform="translate(17486.2 -500.847)" fill="#D32030"/><use xlink:href="#path9_fill" transform="translate(17487.3 -501.917)" fill="#D32030"/><use xlink:href="#path10_fill" transform="translate(17492.2 -506.616)" fill="#D32030"/><use xlink:href="#path11_fill" transform="translate(17486.2 -507.724)" fill="#D32030"/><use xlink:href="#path12_fill" transform="translate(17487.3 -506.653)" fill="#D32030"/><g fill="#252F6C"><use xlink:href="#path13_fill" transform="translate(17493.3 -497.238)"/><use xlink:href="#path14_fill" transform="translate(17493.3 -516.535)"/><use xlink:href="#path15_fill" transform="translate(17496.2 -500.809)"/><use xlink:href="#path16_fill" transform="translate(17496.2 -511.655)"/></g><g fill="#E7E7E7"><use xlink:href="#path17_fill" transform="translate(17494.7 -501.879)"/><use xlink:href="#path18_fill" transform="translate(17493.8 -514.589)"/><use xlink:href="#path19_fill" transform="translate(17492.2 -516.784)"/><use xlink:href="#path20_fill" transform="translate(17494.4 -513.223)"/><use xlink:href="#path21_fill" transform="translate(17493.8 -499.657)"/><use xlink:href="#path22_fill" transform="translate(17492.2 -495.268)"/></g><use xlink:href="#path23_fill" transform="translate(17494.1 -514.375)" fill="#D71F28"/><g fill="#D32030"><use xlink:href="#path24_fill" transform="translate(17489.2 -517)"/><use xlink:href="#path25_fill" transform="translate(17489.2 -492.016)"/><use xlink:href="#path26_fill" transform="translate(17489.8 -493.656)"/></g><g fill="#D71F28"><use xlink:href="#path27_fill" transform="translate(17494.7 -506.617)"/><use xlink:href="#path28_fill" transform="translate(17494.3 -501.668)"/></g><use xlink:href="#path29_fill" transform="translate(17489.8 -517)" fill="#D32030"/><g fill="#29337A"><use xlink:href="#path30_fill" transform="translate(17493.3 -497.907)"/><use xlink:href="#path31_fill" transform="translate(17493.3 -514.273)"/></g><g fill="#FFF"><use xlink:href="#path32_fill" transform="translate(17494.5 -501.88)"/><use xlink:href="#path33_fill" transform="translate(17492.2 -515.879)"/><use xlink:href="#path34_fill" transform="translate(17492.2 -509.123)"/><use xlink:href="#path35_fill" transform="translate(17492.2 -501.711)"/></g><use xlink:href="#path36_fill" transform="translate(17477 -517)" fill="#E51D35"/></g><defs><filter id="filter0_d" filterUnits="userSpaceOnUse" x="17473" y="-517" width="34" height="33" color-interpolation-filters="sRGB"><feFlood flood-opacity="0" result="BackgroundImageFix"/><feColorMatrix in="SourceAlpha" values="0 0 0 0 0 0 0 0 0 0 0 0 0 0 0 0 0 0 255 0"/><feOffset dy="4"/><feGaussianBlur stdDeviation="2"/><feColorMatrix values="0 0 0 0 0 0 0 0 0 0 0 0 0 0 0 0 0 0 0.25 0"/><feBlend in2="BackgroundImageFix" result="effect1_dropShadow"/><feBlend in="SourceGraphic" in2="effect1_dropShadow" result="shape"/></filter><path id="path0_fill" d="M1.835 0A12.305 12.305 0 0 0 0 3.896h5.83L1.835 0z"/><path id="path1_fill" d="M4.049 0A12.901 12.901 0 0 0 0 1.962L4.049 5.91V0z"/><path id="path2_fill" d="M0 3.654a12.902 12.902 0 0 0 3.747 1.753V0L0 3.654z"/><path id="path3_fill" d="M0 0a12.338 12.338 0 0 0 1.903 3.686L5.682 0H0z"/><path id="path4_fill" d="M2.282 0c-.072.096-.142.192-.211.29l3.994 3.896H.235c-.094.35-.171.708-.235 1.07h7.672L2.282 0z"/><path id="path5_fill" d="M0 5.015c.098.071.198.139.297.206l3.748-3.654v5.407c.36.103.725.191 1.097.263V0L0 5.015z"/><path id="path6_fill" d="M0 0c.08.363.173.72.285 1.07h5.682l-3.78 3.686A12.68 12.68 0 0 0 3.55 6.293L10.002 0H0z"/><path id="path7_fill" d="M5.612.263v5.91L1.563 2.224C1.005 2.63.483 3.08 0 3.565l6.71 6.544V0c-.372.072-.738.16-1.098.263z"/><path id="path8_fill" d="M.04 0L0 .038h.04V0z"/><path id="path9_fill" d="M0 .038h.04V0L0 .038z"/><path id="path10_fill" d="M.038 0H0v.036L.038 0z"/><path id="path11_fill" d="M.039.037L0 0v.037h.039z"/><path id="path12_fill" d="M0 0v.037h.039L0 0z"/><path id="path13_fill" d="M0 1.97v2.802a12.89 12.89 0 0 0 3.8-1.736L.685 0C.438.852.346 1.293 0 1.97z"/><path id="path14_fill" d="M.703 5.26L4.1 1.945A12.905 12.905 0 0 0 0 0v2.878c.4.781.433 1.374.703 2.382z"/><path id="path15_fill" d="M3.854 3.759A12.351 12.351 0 0 0 5.81 0H0l3.854 3.759z"/><path id="path16_fill" d="M5.958 3.969A12.304 12.304 0 0 0 4.069 0L0 3.969h5.958z"/><path id="path17_fill" d="M0 .212l.88.859 4.216 4.111c.096-.117.191-.233.283-.353L1.525 1.071h5.81C7.445.72 7.54.363 7.619 0H.082C.07.152.015.06 0 .212z"/><path id="path18_fill" d="M.004 3.941L3.824.214A13.253 13.253 0 0 0 3.535 0L.137 3.314c.035.131-.166.493-.133.627z"/><path id="path19_fill" d="M1.098 2.898V.249C.738.151.372.068 0 0v1.292c.408.432.774.974 1.098 1.606z"/><path id="path20_fill" d="M.235 6.606h7.803c-.064-.362-.141-.72-.236-1.07H1.845l4.069-3.969A12.64 12.64 0 0 0 4.584 0L0 4.47c.123.81.179 1.282.235 2.136z"/><path id="path21_fill" d="M0 2.238l3.298 3.217a12.802 12.802 0 0 0 1.548-1.223L.507 0A21.258 21.258 0 0 1 0 2.238z"/><path id="path22_fill" d="M0 1.612v1.44a13.25 13.25 0 0 0 1.098-.25V0C.774.632.408 1.18 0 1.612z"/><path id="path23_fill" d="M.341 5.622l4.583-4.47A12.714 12.714 0 0 0 3.601 0L0 3.513c.16.652.233 1.4.341 2.11z"/><path id="path26_fill" d="M0 1.656c.809 0 1.598-.076 2.365-.216V0C1.692.712.905 1.656 0 1.656z"/><path id="path27_fill" d="M7.738 0H.037C.139 1.568.127 3.18 0 4.737h7.641c.185-.845.284-1.721.284-2.62 0-.722-.066-1.428-.187-2.117z"/><path id="path28_fill" d="M.443 0C.372.739.123 1.314 0 2.01l4.339 4.232c.429-.397.83-.82 1.2-1.271L1.323.859.443 0z"/><path id="path29_fill" d="M2.365 1.6V.216A13.194 13.194 0 0 0 0 0c.904 0 1.692.889 2.365 1.6z"/><path id="path30_fill" d="M0 3.18A13.26 13.26 0 0 0 .893.87L0 0v3.18z"/><path id="path31_fill" d="M1.004 2.704C.734 1.696.4.78 0 0v3.683l1.004-.98z"/><path id="path32_fill" d="M.466.454L.506 0H0l.466.454z"/><path id="path33_fill" d="M1.098 5.289V1.606C.774.974.408.431 0 0v6.856l2.204-2.15a23.568 23.568 0 0 0-.102-.396l-1.004.979z"/><path id="path34_fill" d="M0 2.506h2.837A29.447 29.447 0 0 0 2.57 0L0 2.506z"/><path id="path35_fill" d="M0 8.59c.408-.432.774-.975 1.098-1.606v-3.18l.892.87c.205-.7.377-1.448.516-2.23L0 0v8.59z"/><path id="path36_fill" d="M15.181 23.879v-8.59l2.506 2.444c.123-.697.22-1.42.291-2.159l-.465-.454h.506a32.78 32.78 0 0 0 .037-4.737h-2.838l2.57-2.506a23.505 23.505 0 0 0-.402-2.05l-2.204 2.15V1.122C14.508.41 13.72 0 12.816 0a13.213 13.213 0 0 0-2.492.238v10.109L3.616 3.803c-.412.415-.795.857-1.146 1.324l4.29 4.186 1.098 1.07H.187A12.29 12.29 0 0 0 0 12.5c0 .9.1 1.775.284 2.62h10.002l-6.452 6.293c.422.405.872.782 1.348 1.127l5.143-5.015v7.237a13.232 13.232 0 0 0 2.491.238c.905 0 1.692-.41 2.365-1.121z"/></defs></svg>