<svg width="34" height="33" xmlns="http://www.w3.org/2000/svg" xmlns:xlink="http://www.w3.org/1999/xlink"><g opacity=".3" filter="url(#filter0_d)" transform="translate(-17385 517)"><use xlink:href="#path0_fill" transform="translate(17389 -517)" fill="#F0F0F0"/><use xlink:href="#path1_fill" transform="translate(17389 -508.848)" fill="#0052B4"/><use xlink:href="#path2_fill" transform="translate(17389.8 -500.152)" fill="#D80027"/></g><defs><filter id="filter0_d" filterUnits="userSpaceOnUse" x="17385" y="-517" width="34" height="34" color-interpolation-filters="sRGB"><feFlood flood-opacity="0" result="BackgroundImageFix"/><feColorMatrix in="SourceAlpha" values="0 0 0 0 0 0 0 0 0 0 0 0 0 0 0 0 0 0 255 0"/><feOffset dy="4"/><feGaussianBlur stdDeviation="2"/><feColorMatrix values="0 0 0 0 0 0 0 0 0 0 0 0 0 0 0 0 0 0 0.25 0"/><feBlend in2="BackgroundImageFix" result="effect1_dropShadow"/><feBlend in="SourceGraphic" in2="effect1_dropShadow" result="shape"/></filter><path id="path0_fill" d="M12.815 25c7.077 0 12.815-5.596 12.815-12.5S19.892 0 12.815 0C5.737 0 0 5.596 0 12.5S5.737 25 12.815 25z"/><path id="path1_fill" d="M24.833 8.696c.515-1.355.797-2.82.797-4.348 0-1.53-.282-2.994-.797-4.348H.797A12.2 12.2 0 0 0 0 4.348a12.2 12.2 0 0 0 .797 4.348l12.018 1.087 12.018-1.087z"/><path id="path2_fill" d="M12.018 8.152c5.51 0 10.207-3.392 12.018-8.152H0c1.81 4.76 6.508 8.152 12.018 8.152z"/></defs></svg>